<?xml version="1.0" standalone="yes"?>
<svg xmlns="http://www.w3.org/2000/svg" width="1081" height="1095">
<path style="fill:#333333; stroke:none;" d="M0 0L0 469C2.40246 463.328 2.26133 456.088 3.32099 450C5.76691 435.948 8.87047 421.837 12.3742 408C22.2059 369.172 37.0922 330.419 55.7809 295C129.881 154.565 263.305 48.1549 419 13.5756C450.089 6.6709 482.088 1 514 1C509.531 -0.875122 503.809 0 499 0L469 0L364 0L0 0z"/>
<path style="fill:#0d0d0d; stroke:none;" d="M514 0C518.216 1.76941 523.459 1 528 1C523.784 -0.769287 518.541 0 514 0z"/>
<path style="fill:#000000; stroke:none;" d="M528 0.424438C514.819 2.15491 501.269 0.838623 488 2.17053C451.178 5.86646 414.468 13.0378 379 23.72C240.423 65.4564 121.448 166.76 55.2585 295C32.4104 339.267 15.4745 387.085 6.19599 436C3.98616 447.65 1.29751 459.157 0.169753 471C-1.32832 486.731 0 503.196 0 519L0 585C0 596.208 -0.89289 607.841 0.169753 619C4.45725 664.023 18.6051 710.244 35.6034 752C96.2291 900.926 224.487 1018.27 378 1065.97C451.875 1088.93 532.374 1095.69 609 1085.71C761.514 1065.84 901.402 982.056 988.974 855C1016.74 814.722 1038.32 771.014 1054.69 725C1063.81 699.366 1070.88 672.768 1075.61 646C1077.25 636.734 1079.89 627.358 1080.83 618C1083.05 595.78 1081 572.338 1081 550L1081 499C1081 490.101 1081.72 480.857 1080.83 472C1078.37 447.373 1072.2 421.818 1065.58 398C1015.13 216.539 867.91 69.1179 686 19.8488C644.548 8.62158 601.989 1.50732 559 0.996094C548.649 0.873047 538.398 -0.940674 528 0.424438z"/>
<path style="fill:#0d0d0d; stroke:none;" d="M552 0C556.471 1.87634 562.183 1 567 1C562.529 -0.876343 556.817 0 552 0z"/>
<path style="fill:#333333; stroke:none;" d="M567 0C574.002 2.93835 585.307 1.52466 593 2.08875C606.292 3.06323 619.857 5.56006 633 7.75464C672.926 14.4216 712.585 26.5728 750 42.0109C887.565 98.7727 1001.69 216.516 1051.69 357C1063.99 391.547 1076.09 428.189 1079 465C1080.77 460.785 1080 455.536 1080 451L1080 424L1080 329L1080 0L567 0z"/>
<path style="fill:#ffffff; stroke:none;" d="M1080 0L1080 470C1081.55 466.301 1081 461.983 1081 458L1081 435L1081 353L1081 103L1081 31C1081 21.9403 1083.51 8.35742 1080 0z"/>
<path style="fill:#191919; stroke:none;" d="M576 1C579.163 2.32739 582.586 1.99963 586 2C582.837 0.672607 579.414 1.00037 576 1M589 2C591.613 3.09778 594.164 2.9928 597 3C594.387 1.90222 591.836 2.0072 589 2M475 3C477.052 3.87427 478.747 3.95276 481 4C478.948 3.12573 477.253 3.04724 475 3M599 3C601.052 3.87427 602.747 3.95276 605 4C602.948 3.12573 601.253 3.04724 599 3z"/>
<path style="fill:#161616; stroke:none;" d="M467 4C468.506 4.68311 469.315 4.82593 471 5C469.494 4.31689 468.685 4.17407 467 4z"/>
<path style="fill:#191919; stroke:none;" d="M615 5C616.506 5.68311 617.315 5.82593 619 6C617.494 5.31689 616.685 5.17407 615 5M635 8C636.248 8.68481 636.548 8.74878 638 9C636.751 8.31494 636.452 8.25122 635 8M660 13C661.248 13.6848 661.548 13.7488 663 14C661.751 13.3151 661.452 13.2512 660 13z"/>
<path style="fill:#280308; stroke:none;" d="M87.3333 317.667C87.2779 317.722 87.2221 318.778 87.6667 318.333C87.7223 318.278 87.7777 317.222 87.3333 317.667z"/>
<path style="fill:#770a17; stroke:none;" d="M88 317C94.9186 319.903 105.52 318 113 318L167 318C160.081 315.097 149.48 317 142 317L88 317z"/>
<path style="fill:#900b17; stroke:none;" d="M439 317C445.919 319.903 456.52 318 464 318L519 318C512.081 315.097 501.48 317 494 317L439 317z"/>
<path style="fill:#770a17; stroke:none;" d="M519 317C524.222 319.191 531.368 318 537 318C531.778 315.809 524.632 317 519 317z"/>
<path style="fill:#300408; stroke:none;" d="M730 317C732.89 318.213 735.874 317.998 739 318C736.11 316.787 733.126 317.002 730 317z"/>
<path style="fill:#60080f; stroke:none;" d="M739 317C742.697 318.552 747.017 318 751 318C747.303 316.448 742.983 317 739 317z"/>
<path style="fill:#900b17; stroke:none;" d="M751 317C756.469 319.295 764.099 318 770 318C764.531 315.705 756.901 317 751 317z"/>
<path style="fill:#bf0f1e; stroke:none;" d="M662 566C663.231 561.984 661.448 557.14 660.87 553C659.657 544.318 658.998 535.708 658.17 527C656.921 513.881 658 500.178 658 487C658 468.32 657.309 449.544 659.718 431C661.451 417.665 664.148 403.883 674.015 394.015C689.859 378.171 717.422 380.862 738 379.961C769.267 378.592 800.655 379 832 379C848.786 379 870.759 378.257 886 386.327C903.098 395.381 906 411.437 906 429L974 429C974 400.062 972.667 368.054 952.7 345.004C936.295 326.066 908.59 321.81 885 319.914C838.274 316.159 791.809 318 745 318C729.253 318 713.676 318.831 698 319.911C665.733 322.133 631.407 325.585 610.015 353C605.97 358.185 602.528 363.987 599.862 370C595.741 379.294 594.059 389.094 592.196 399C590.828 406.273 589.058 414.592 590.214 422C590.998 427.024 594.501 431.528 596.752 436L610.753 464C627.663 497.819 647.468 531.097 662 566z"/>
<path style="fill:#900b17; stroke:none;" d="M839 317C842.163 318.327 845.586 318 849 318C845.837 316.673 842.415 317 839 317z"/>
<path style="fill:#60080f; stroke:none;" d="M849 317C851.613 318.098 854.164 317.993 857 318C854.387 316.902 851.836 317.007 849 317z"/>
<path style="fill:#300408; stroke:none;" d="M857 317C859.052 317.874 860.747 317.953 863 318C860.948 317.126 859.253 317.047 857 317z"/>
<path style="fill:#9e0d1e; stroke:none;" d="M88 318C90.2287 325.736 94.8703 332.666 98.1389 340C108.241 362.667 119.932 384.661 130.742 407C160.738 468.994 191.367 530.728 220.781 593C227.739 607.73 234.964 622.434 242.247 637C246.289 645.084 251.494 653.3 254 662C256.441 661.991 259.449 662.355 261.61 660.972C266.095 658.102 268.433 649.522 271 645C281.001 627.381 288.784 608.503 299 591C288.129 573.585 280.675 553.463 271.742 535C248.533 487.035 226.063 438.664 202.247 391C193.653 373.8 185.843 356.204 177.247 339C174.499 333.501 171.958 322.44 166.61 319.028C161.698 315.895 150.678 318 145 318L88 318z"/>
<path style="fill:#bf0f1e; stroke:none;" d="M262 662L324 662C330.113 662 342.342 664.333 347.61 660.972C350.208 659.315 351.435 655.632 352.753 653L361.247 636C372.051 614.391 382.446 592.603 393.247 571C425.8 505.894 460.404 441.342 490.312 375C496.114 362.128 502.932 349.629 509.247 337C512.338 330.819 516.082 324.657 518 318L460 318C454.589 318 443.202 315.841 438.637 319.028C436.207 320.724 435.027 324.453 433.753 327C431.075 332.352 428.515 337.785 425.576 343C412.899 365.491 402.267 389.166 390.219 412C359.452 470.31 329.241 529.025 299.753 588C287.454 612.598 272.566 636.622 262 662z"/>
<path style="fill:#9e0d1e; stroke:none;" d="M571 539L463 539L430 539C423.03 539 415.817 539.623 409 538C401.17 556.807 387.639 574.425 382 594L529 594L574 594C580.406 594 588.706 592.597 594.895 594.318C600.347 595.834 602.912 605.454 605.258 610C611.818 622.709 618.545 635.35 625.219 648C627.222 651.796 629.264 659.456 633.39 661.397C638.849 663.964 649.026 662 655 662C671.95 662 689.068 661.298 706 662.039C758.838 664.353 812.059 663 865 663C877.744 663 891.359 664.357 904 662.711C922.089 660.354 940.882 649.855 952.561 636C971.323 613.741 973.82 584.851 975.039 557C976.19 530.712 976 504.362 976 478L773 478L773 529L863 529C878.141 529 893.931 530.289 909 528.83C931.179 526.684 952.761 515.969 975 515C963.37 541.955 933.763 559.765 905 561C902.135 582.258 885.522 595.952 865 598.718C849.241 600.842 833.845 600.626 818 601.015C797.905 601.507 778.109 601.92 758 601.039C743.306 600.396 728.643 601.466 714 599.714C692.237 597.112 668.302 589.982 664 565C660.051 565 656.593 553.518 654.833 550C647.3 534.934 639.381 520.096 631.833 505C608.284 457.902 584.777 410.631 560.167 364C554.611 353.473 549.492 342.651 544.167 332C542.278 328.222 540.682 322.182 537.667 319.167C535.669 317.169 531.578 318 529 318C526.348 318 520.562 316.896 518.333 318.5C514.453 321.294 511.955 330.756 509.833 335L494.833 365C493.153 368.362 488.572 374.086 489.333 378C490.718 385.121 496.914 393.495 500.167 400C509.362 418.391 518.978 436.623 528.167 455C538.033 474.733 548.31 494.287 558.167 514C562.315 522.296 567.8 530.314 571 539z"/>
<path style="fill:#300408; stroke:none;" d="M706 318C707.769 318.779 709.036 318.912 711 319C709.231 318.221 707.964 318.088 706 318z"/>
<path style="fill:#60080f; stroke:none;" d="M711 318C712.769 318.779 714.036 318.912 716 319C714.231 318.221 712.964 318.088 711 318z"/>
<path style="fill:#900b17; stroke:none;" d="M716 318C718.052 318.874 719.747 318.953 722 319C719.948 318.126 718.253 318.047 716 318M867 318C868.506 318.683 869.315 318.826 871 319C869.494 318.317 868.685 318.174 867 318z"/>
<path style="fill:#60080f; stroke:none;" d="M871 318C872.506 318.683 873.315 318.826 875 319C873.494 318.317 872.685 318.174 871 318z"/>
<path style="fill:#300408; stroke:none;" d="M875 318C876.248 318.685 876.548 318.749 878 319C876.752 318.315 876.452 318.251 875 318M692 319C693.248 319.685 693.548 319.749 695 320C693.752 319.315 693.452 319.251 692 319z"/>
<path style="fill:#60080f; stroke:none;" d="M695 319C696.506 319.683 697.315 319.826 699 320C697.494 319.317 696.685 319.174 695 319z"/>
<path style="fill:#900b17; stroke:none;" d="M699 319C700.248 319.685 700.549 319.749 702 320C700.752 319.315 700.452 319.251 699 319M881 319C882.248 319.685 882.549 319.749 884 320C882.752 319.315 882.451 319.251 881 319z"/>
<path style="fill:#60080f; stroke:none;" d="M884.667 319.333C884.222 319.778 885.278 319.722 885.333 319.667C885.778 319.222 884.722 319.278 884.667 319.333z"/>
<path style="fill:#300408; stroke:none;" d="M886 319C887.248 319.685 887.548 319.749 889 320C887.752 319.315 887.452 319.251 886 319M682 320C683.248 320.685 683.548 320.749 685 321C683.752 320.315 683.452 320.251 682 320z"/>
<path style="fill:#900b17; stroke:none;" d="M685 320C686.506 320.683 687.315 320.826 689 321C687.494 320.317 686.685 320.174 685 320M891.667 320.333C891.222 320.778 892.278 320.722 892.333 320.667C892.778 320.222 891.722 320.278 891.667 320.333z"/>
<path style="fill:#60080f; stroke:none;" d="M893.667 320.333C893.222 320.778 894.278 320.722 894.333 320.667C894.778 320.222 893.722 320.278 893.667 320.333z"/>
<path style="fill:#300408; stroke:none;" d="M674.667 321.333C674.222 321.778 675.278 321.722 675.333 321.667C675.778 321.222 674.722 321.278 674.667 321.333z"/>
<path style="fill:#60080f; stroke:none;" d="M676.667 321.333C676.222 321.778 677.278 321.722 677.333 321.667C677.778 321.222 676.722 321.278 676.667 321.333z"/>
<path style="fill:#900b17; stroke:none;" d="M678.667 321.333C678.222 321.778 679.278 321.722 679.333 321.667C679.778 321.222 678.722 321.278 678.667 321.333z"/>
<path style="fill:#54070d; stroke:none;" d="M900 321C901.248 321.685 901.548 321.749 903 322C901.752 321.315 901.452 321.251 900 321z"/>
<path style="fill:#300408; stroke:none;" d="M667.667 322.333C667.222 322.778 668.278 322.722 668.333 322.667C668.778 322.222 667.722 322.278 667.667 322.333z"/>
<path style="fill:#6c0811; stroke:none;" d="M669.667 322.333C669.222 322.778 670.278 322.722 670.333 322.667C670.778 322.222 669.722 322.278 669.667 322.333z"/>
<path style="fill:#3c0509; stroke:none;" d="M906.667 322.333C906.222 322.778 907.278 322.722 907.333 322.667C907.778 322.222 906.722 322.278 906.667 322.333M661.667 323.333C661.222 323.778 662.278 323.722 662.333 323.667C662.778 323.222 661.722 323.278 661.667 323.333z"/>
<path style="fill:#840a15; stroke:none;" d="M663 323C664.248 323.685 664.549 323.749 666 324C664.752 323.315 664.452 323.251 663 323z"/>
<path style="fill:#60080f; stroke:none;" d="M910 323C911.248 323.685 911.548 323.749 913 324C911.752 323.315 911.451 323.251 910 323z"/>
<path style="fill:#6c0811; stroke:none;" d="M657 324C658.248 324.685 658.549 324.749 660 325C658.752 324.315 658.451 324.251 657 324z"/>
<path style="fill:#300408; stroke:none;" d="M915.667 324.333C915.222 324.778 916.278 324.722 916.333 324.667C916.778 324.222 915.722 324.278 915.667 324.333z"/>
<path style="fill:#780913; stroke:none;" d="M653.667 325.333C653.222 325.778 654.278 325.722 654.333 325.667C654.778 325.222 653.722 325.278 653.667 325.333z"/>
<path style="fill:#54070d; stroke:none;" d="M918.667 325.333C918.222 325.778 919.278 325.722 919.333 325.667C919.778 325.222 918.722 325.278 918.667 325.333z"/>
<path style="fill:#6c0811; stroke:none;" d="M644 328L645 329L644 328z"/>
<path style="fill:#48060b; stroke:none;" d="M432 329L433 330L432 329M641 329L642 330L641 329z"/>
<path style="fill:#60080f; stroke:none;" d="M930 329L931 330L930 329z"/>
<path style="fill:#48060b; stroke:none;" d="M431 331L432 332L431 331z"/>
<path style="fill:#60080f; stroke:none;" d="M936 332L937 333L936 332z"/>
<path style="fill:#48060b; stroke:none;" d="M430 333L431 334L430 333z"/>
<path style="fill:#54070d; stroke:none;" d="M938 333L939 334L938 333z"/>
<path style="fill:#60080f; stroke:none;" d="M631 334L632 335L631 334z"/>
<path style="fill:#48060b; stroke:none;" d="M429 335L430 336L429 335z"/>
<path style="fill:#60080f; stroke:none;" d="M941 335L942 336L941 335M428 337L429 338L428 337z"/>
<path style="fill:#54070d; stroke:none;" d="M626 337L627 338L626 337z"/>
<path style="fill:#48060b; stroke:none;" d="M944 337L945 338L944 337z"/>
<path style="fill:#6c0811; stroke:none;" d="M945 338L946 339L945 338z"/>
<path style="fill:#60080f; stroke:none;" d="M427 339L428 340L427 339z"/>
<path style="fill:#54070d; stroke:none;" d="M622 340L623 341L622 340z"/>
<path style="fill:#60080f; stroke:none;" d="M426 341L427 342L426 341M425 343L426 344L425 343z"/>
<path style="fill:#6c0811; stroke:none;" d="M954 347L955 348L954 347M611 351L612 352L611 351M957 351L958 352L957 351z"/>
<path style="fill:#48060b; stroke:none;" d="M610 352L611 353L610 352z"/>
<path style="fill:#6c0811; stroke:none;" d="M959 354L960 355L959 354z"/>
<path style="fill:#48060b; stroke:none;" d="M961 357L962 358L961 357M962 359L963 360L962 359z"/>
<path style="fill:#6c0811; stroke:none;" d="M604 361L605 362L604 361z"/>
<path style="fill:#48060b; stroke:none;" d="M963 361L964 362L963 361M964 363L965 364L964 363M414 364L415 365L414 364M413 366L414 367L413 366M412 368L413 369L412 368z"/>
<path style="fill:#840a15; stroke:none;" d="M966.333 368.667C966.278 368.722 966.222 369.778 966.667 369.333C966.722 369.278 966.778 368.222 966.333 368.667z"/>
<path style="fill:#48060b; stroke:none;" d="M411 370L412 371L411 370z"/>
<path style="fill:#840a15; stroke:none;" d="M967.333 371.667C967.278 371.722 967.222 372.778 967.667 372.333C967.722 372.278 967.778 371.222 967.333 371.667z"/>
<path style="fill:#60080f; stroke:none;" d="M410 372L411 373L410 372z"/>
<path style="fill:#48060b; stroke:none;" d="M598 373L599 374L598 373z"/>
<path style="fill:#60080f; stroke:none;" d="M409 374L410 375L409 374z"/>
<path style="fill:#780913; stroke:none;" d="M968.333 374.667C968.278 374.722 968.222 375.778 968.667 375.333C968.722 375.278 968.778 374.222 968.333 374.667z"/>
<path style="fill:#60080f; stroke:none;" d="M408 376L409 377L408 376M407 378L408 379L407 378z"/>
<path style="fill:#550710; stroke:none;" d="M489 378L490 379L489 378z"/>
<path style="fill:#900b17; stroke:none;" d="M969.333 378.667C969.278 378.722 969.222 379.778 969.667 379.333C969.722 379.278 969.778 378.222 969.333 378.667z"/>
<path style="fill:#60080f; stroke:none;" d="M488 379L489 380L488 379z"/>
<path style="fill:#000000; stroke:none;" d="M489 379C473.516 405.529 461.112 434.368 447.742 462C435.476 487.348 420.822 512.008 410 538L570 538C568.821 531.387 564.872 525.858 561.781 520C556.738 510.443 552.079 500.665 547.247 491C534.518 465.542 521.312 440.291 508.258 415C502.384 403.619 497.784 388.382 489 379z"/>
<path style="fill:#900b17; stroke:none;" d="M742 379C745.697 380.552 750.017 380 754 380C750.303 378.448 745.983 379 742 379z"/>
<path style="fill:#60080f; stroke:none;" d="M754 379C760.687 381.806 770.767 380 778 380C771.313 377.194 761.233 379 754 379z"/>
<path style="fill:#300408; stroke:none;" d="M778 379C782.72 380.981 788.92 380 794 380L826 380C821.28 378.019 815.08 379 810 379L778 379z"/>
<path style="fill:#60080f; stroke:none;" d="M826 379C830.216 380.769 835.459 380 840 380C835.784 378.231 830.541 379 826 379z"/>
<path style="fill:#900b17; stroke:none;" d="M840 379C842.332 379.985 844.456 379.981 847 380C844.669 379.015 842.543 379.019 840 379z"/>
<path style="fill:#6c0811; stroke:none;" d="M406 380L407 381L406 380z"/>
<path style="fill:#4f070f; stroke:none;" d="M490 380L491 381L490 380z"/>
<path style="fill:#900b17; stroke:none;" d="M719 380C720.248 380.685 720.548 380.749 722 381C720.752 380.315 720.451 380.251 719 380z"/>
<path style="fill:#60080f; stroke:none;" d="M722 380C723.769 380.779 725.036 380.912 727 381C725.231 380.221 723.964 380.088 722 380z"/>
<path style="fill:#300408; stroke:none;" d="M727 380C729.331 380.985 731.457 380.981 734 381C731.668 380.015 729.543 380.019 727 380M853 380C854.506 380.683 855.315 380.826 857 381C855.494 380.317 854.685 380.174 853 380z"/>
<path style="fill:#60080f; stroke:none;" d="M857 380C858.248 380.685 858.548 380.749 860 381C858.752 380.315 858.452 380.251 857 380z"/>
<path style="fill:#900b17; stroke:none;" d="M860 380C861.248 380.685 861.548 380.749 863 381C861.752 380.315 861.452 380.251 860 380M707.667 381.333C707.222 381.778 708.278 381.722 708.333 381.667C708.778 381.222 707.722 381.278 707.667 381.333z"/>
<path style="fill:#60080f; stroke:none;" d="M709 381C710.248 381.685 710.548 381.749 712 382C710.752 381.315 710.452 381.251 709 381z"/>
<path style="fill:#300408; stroke:none;" d="M712 381C713.248 381.685 713.548 381.749 715 382C713.752 381.315 713.451 381.251 712 381M865.667 381.333C865.222 381.778 866.278 381.722 866.333 381.667C866.778 381.222 865.722 381.278 865.667 381.333z"/>
<path style="fill:#60080f; stroke:none;" d="M867.667 381.333C867.222 381.778 868.278 381.722 868.333 381.667C868.778 381.222 867.722 381.278 867.667 381.333M970.333 381.667C970.278 381.722 970.222 382.778 970.667 382.333C970.722 382.278 970.778 381.222 970.333 381.667z"/>
<path style="fill:#840a15; stroke:none;" d="M595.333 382.667C595.278 382.722 595.222 383.778 595.667 383.333C595.722 383.278 595.778 382.222 595.333 382.667z"/>
<path style="fill:#780913; stroke:none;" d="M699 382C700.248 382.685 700.549 382.749 702 383C700.752 382.315 700.452 382.251 699 382z"/>
<path style="fill:#300408; stroke:none;" d="M702.667 382.333C702.222 382.778 703.278 382.722 703.333 382.667C703.778 382.222 702.722 382.278 702.667 382.333z"/>
<path style="fill:#48060b; stroke:none;" d="M872 382C873.248 382.685 873.549 382.749 875 383C873.752 382.315 873.452 382.251 872 382z"/>
<path style="fill:#60080f; stroke:none;" d="M694.667 383.333C694.222 383.778 695.278 383.722 695.333 383.667C695.778 383.222 694.722 383.278 694.667 383.333M877.667 383.333C877.222 383.778 878.278 383.722 878.333 383.667C878.778 383.222 877.722 383.278 877.667 383.333z"/>
<path style="fill:#3c0509; stroke:none;" d="M690.667 384.333C690.222 384.778 691.278 384.722 691.333 384.667C691.778 384.222 690.722 384.278 690.667 384.333z"/>
<path style="fill:#840a15; stroke:none;" d="M881.667 384.333C881.222 384.778 882.278 384.722 882.333 384.667C882.778 384.222 881.722 384.278 881.667 384.333z"/>
<path style="fill:#60080f; stroke:none;" d="M594.333 385.667C594.278 385.722 594.222 386.778 594.667 386.333C594.722 386.278 594.778 385.222 594.333 385.667M884 385L885 386L884 385M684 386L685 387L684 386z"/>
<path style="fill:#48060b; stroke:none;" d="M886 386L887 387L886 386z"/>
<path style="fill:#60080f; stroke:none;" d="M971.333 386.667C971.278 386.722 971.222 387.778 971.667 387.333C971.722 387.278 971.778 386.222 971.333 386.667z"/>
<path style="fill:#48060b; stroke:none;" d="M682 387L683 388L682 387z"/>
<path style="fill:#60080f; stroke:none;" d="M888 387L889 388L888 387z"/>
<path style="fill:#48060b; stroke:none;" d="M680 388L681 389L680 388z"/>
<path style="fill:#54070d; stroke:none;" d="M593.333 389.667C593.278 389.722 593.222 390.778 593.667 390.333C593.722 390.278 593.778 389.222 593.333 389.667z"/>
<path style="fill:#60080f; stroke:none;" d="M678 389L679 390L678 389z"/>
<path style="fill:#54070d; stroke:none;" d="M891 389L892 390L891 389z"/>
<path style="fill:#48060b; stroke:none;" d="M972 391L972 394C972.696 392.446 972.696 392.554 972 391z"/>
<path style="fill:#54070d; stroke:none;" d="M592.333 394.667C592.278 394.722 592.222 395.778 592.667 395.333C592.722 395.278 592.778 394.222 592.333 394.667z"/>
<path style="fill:#900b17; stroke:none;" d="M972.333 394.667C972.278 394.722 972.222 395.778 972.667 395.333C972.722 395.278 972.778 394.222 972.333 394.667M592.333 396.667C592.278 396.722 592.222 397.778 592.667 397.333C592.722 397.278 592.778 396.222 592.333 396.667z"/>
<path style="fill:#6c0811; stroke:none;" d="M669 398L670 399L669 398z"/>
<path style="fill:#300408; stroke:none;" d="M973.333 398.667C973.278 398.722 973.222 399.778 973.667 399.333C973.722 399.278 973.778 398.222 973.333 398.667z"/>
<path style="fill:#48060b; stroke:none;" d="M396 399L397 400L396 399z"/>
<path style="fill:#60080f; stroke:none;" d="M591 400L591 403C591.696 401.446 591.696 401.554 591 400M901 400L902 401L901 400M973.333 400.667C973.278 400.722 973.222 401.778 973.667 401.333C973.722 401.278 973.778 400.222 973.333 400.667z"/>
<path style="fill:#48060b; stroke:none;" d="M395 401L396 402L395 401z"/>
<path style="fill:#900b17; stroke:none;" d="M973 402L973 405C973.696 403.446 973.696 403.554 973 402z"/>
<path style="fill:#48060b; stroke:none;" d="M394 403L395 404L394 403M393 405L394 406L393 405z"/>
<path style="fill:#300408; stroke:none;" d="M903.333 405.667C903.278 405.722 903.222 406.778 903.667 406.333C903.722 406.278 903.778 405.222 903.333 405.667M590.333 406.667C590.278 406.722 590.222 407.778 590.667 407.333C590.722 407.278 590.778 406.222 590.333 406.667z"/>
<path style="fill:#48060b; stroke:none;" d="M665 406L666 407L665 406z"/>
<path style="fill:#60080f; stroke:none;" d="M392 407L393 408L392 407M590 408L590 411C590.696 409.446 590.696 409.554 590 408z"/>
<path style="fill:#3c0509; stroke:none;" d="M664.333 408.667C664.278 408.722 664.222 409.778 664.667 409.333C664.722 409.278 664.778 408.222 664.333 408.667z"/>
<path style="fill:#6c0811; stroke:none;" d="M904.333 408.667C904.278 408.722 904.222 409.778 904.667 409.333C904.722 409.278 904.778 408.222 904.333 408.667z"/>
<path style="fill:#300408; stroke:none;" d="M974 408L974 412C974.71 410.24 974.71 409.76 974 408z"/>
<path style="fill:#60080f; stroke:none;" d="M391 409L392 410L391 409z"/>
<path style="fill:#300408; stroke:none;" d="M904.333 410.667C904.278 410.722 904.222 411.778 904.667 411.333C904.722 411.278 904.778 410.222 904.333 410.667z"/>
<path style="fill:#60080f; stroke:none;" d="M390 411L391 412L390 411z"/>
<path style="fill:#48060b; stroke:none;" d="M663.333 411.667C663.278 411.722 663.222 412.778 663.667 412.333C663.722 412.278 663.778 411.222 663.333 411.667z"/>
<path style="fill:#60080f; stroke:none;" d="M974 412L974 417C974.83 414.97 974.83 414.03 974 412M389 413L390 414L389 413z"/>
<path style="fill:#900b17; stroke:none;" d="M905.333 414.667C905.278 414.722 905.222 415.778 905.667 415.333C905.722 415.278 905.778 414.222 905.333 414.667z"/>
<path style="fill:#6c0811; stroke:none;" d="M388 415L389 416L388 415z"/>
<path style="fill:#300408; stroke:none;" d="M589 415L589 418C589.696 416.446 589.696 416.554 589 415z"/>
<path style="fill:#3c0509; stroke:none;" d="M662.333 415.667C662.278 415.722 662.222 416.778 662.667 416.333C662.722 416.278 662.778 415.222 662.333 415.667z"/>
<path style="fill:#60080f; stroke:none;" d="M905 416L905 419C905.696 417.446 905.696 417.554 905 416z"/>
<path style="fill:#900b17; stroke:none;" d="M974 417L974 429C975.512 425.396 975.512 420.604 974 417z"/>
<path style="fill:#6c0811; stroke:none;" d="M589 418L588 421C589.766 420.021 589.955 419.778 589 418z"/>
<path style="fill:#300408; stroke:none;" d="M905 419L905 424C905.83 421.97 905.83 421.03 905 419z"/>
<path style="fill:#3c0509; stroke:none;" d="M661 420L661 423C661.696 421.446 661.696 421.554 661 420z"/>
<path style="fill:#900b17; stroke:none;" d="M660.333 424.667C660.278 424.722 660.222 425.778 660.667 425.333C660.722 425.278 660.778 424.222 660.333 424.667z"/>
<path style="fill:#54070d; stroke:none;" d="M660.333 426.667C660.278 426.722 660.222 427.778 660.667 427.333C660.722 427.278 660.778 426.222 660.333 426.667z"/>
<path style="fill:#300408; stroke:none;" d="M906 429C912.194 431.599 921.314 430 928 430L975 430C968.806 427.401 959.686 429 953 429L906 429z"/>
<path style="fill:#900b17; stroke:none;" d="M659.333 432.667C659.278 432.722 659.222 433.778 659.667 433.333C659.722 433.278 659.778 432.222 659.333 432.667z"/>
<path style="fill:#48060b; stroke:none;" d="M378 434L379 435L378 434z"/>
<path style="fill:#60080f; stroke:none;" d="M659 434L659 437C659.696 435.446 659.696 435.554 659 434z"/>
<path style="fill:#48060b; stroke:none;" d="M377 436L378 437L377 436z"/>
<path style="fill:#300408; stroke:none;" d="M659 437L659 440C659.696 438.446 659.696 438.554 659 437z"/>
<path style="fill:#48060b; stroke:none;" d="M376 438L377 439L376 438M375 440L376 441L375 440z"/>
<path style="fill:#60080f; stroke:none;" d="M374 442L375 443L374 442M373 444L374 445L373 444z"/>
<path style="fill:#900b17; stroke:none;" d="M658 444L658 449C658.83 446.97 658.83 446.03 658 444z"/>
<path style="fill:#60080f; stroke:none;" d="M372 446L373 447L372 446z"/>
<path style="fill:#191919; stroke:none;" d="M1076 446L1076 449C1076.7 447.446 1076.7 447.554 1076 446z"/>
<path style="fill:#60080f; stroke:none;" d="M371 448L372 449L371 448M658 449L658 454C658.83 451.97 658.83 451.03 658 449z"/>
<path style="fill:#6c0811; stroke:none;" d="M370 450L371 451L370 450z"/>
<path style="fill:#300408; stroke:none;" d="M658 454L658 463C659.256 460.006 659.256 456.994 658 454z"/>
<path style="fill:#48060b; stroke:none;" d="M449 458L450 459L449 458M448 460L449 461L448 460M447 462L448 463L447 462M446 464L447 465L446 464M445 466L446 467L445 466M444 468L445 469L444 468M360 469L361 470L360 469M443 470L444 471L443 470M359 471L360 472L359 471M442 472L443 473L442 472M358 473L359 474L358 473M441 474L442 475L441 474M357 475L358 476L357 475M440 476L441 477L440 476z"/>
<path style="fill:#60080f; stroke:none;" d="M356 477L357 478L356 477z"/>
<path style="fill:#4c060e; stroke:none;" d="M773 477C778.462 479.292 786.113 478 792 478L833 478L976 478C970.537 475.708 962.887 477 957 477L916 477L773 477z"/>
<path style="fill:#48060b; stroke:none;" d="M439 478L440 479L439 478z"/>
<path style="fill:#4c060e; stroke:none;" d="M976 478L976 517C979.206 509.361 977 497.271 977 489C977 485.298 977.441 481.435 976 478z"/>
<path style="fill:#60080f; stroke:none;" d="M355 479L356 480L355 479z"/>
<path style="fill:#48060b; stroke:none;" d="M438 480L439 481L438 480z"/>
<path style="fill:#60080f; stroke:none;" d="M354 481L355 482L354 481z"/>
<path style="fill:#48060b; stroke:none;" d="M437 482L438 483L437 482z"/>
<path style="fill:#60080f; stroke:none;" d="M353 483L354 484L353 483z"/>
<path style="fill:#48060b; stroke:none;" d="M436 484L437 485L436 484z"/>
<path style="fill:#60080f; stroke:none;" d="M352 485L353 486L352 485z"/>
<path style="fill:#48060b; stroke:none;" d="M435 486L436 487L435 486M434 488L435 489L434 488M433 490L434 491L433 490M432 492L433 493L432 492M431 494L432 495L431 494z"/>
<path style="fill:#60080f; stroke:none;" d="M430 496L431 497L430 496M429 498L430 499L429 498M428 500L429 501L428 500M427 502L428 503L427 502z"/>
<path style="fill:#48060b; stroke:none;" d="M342 504L343 505L342 504z"/>
<path style="fill:#60080f; stroke:none;" d="M426 504L427 505L426 504z"/>
<path style="fill:#48060b; stroke:none;" d="M341 506L342 507L341 506z"/>
<path style="fill:#60080f; stroke:none;" d="M425 506L426 507L425 506z"/>
<path style="fill:#48060b; stroke:none;" d="M340 508L341 509L340 508z"/>
<path style="fill:#60080f; stroke:none;" d="M424 508L425 509L424 508z"/>
<path style="fill:#48060b; stroke:none;" d="M339 510L340 511L339 510z"/>
<path style="fill:#60080f; stroke:none;" d="M423 510L424 511L423 510z"/>
<path style="fill:#300408; stroke:none;" d="M658 510L658 519C659.256 516.006 659.256 512.994 658 510z"/>
<path style="fill:#60080f; stroke:none;" d="M338 512L339 513L338 512M422 512L423 513L422 512M337 514L338 515L337 514M421 514L422 515L421 514z"/>
<path style="fill:#bf0f1e; stroke:none;" d="M908 529C908 539.843 907.359 550.247 906 561C927.278 560.087 947.842 550.613 962.271 534.911C967.502 529.218 972.794 522.497 975 515C966.945 515.167 958.853 517.844 951 519.576C936.68 522.734 922.405 526.286 908 529z"/>
<path style="fill:#60080f; stroke:none;" d="M336 516L337 517L336 516M420 516L421 517L420 516z"/>
<path style="fill:#670913; stroke:none;" d="M976 517L976 532C977.74 527.852 977.74 521.148 976 517z"/>
<path style="fill:#60080f; stroke:none;" d="M335 518L336 519L335 518M419 518L420 519L419 518M658 519L658 526C659.059 523.466 659.06 521.534 658 519M334 520L335 521L334 520M418 520L419 521L418 520M417 522L418 523L417 522M416 524L417 525L416 524M415 526L416 527L415 526z"/>
<path style="fill:#900b17; stroke:none;" d="M658 526L658 530C658.71 528.241 658.71 527.759 658 526z"/>
<path style="fill:#60080f; stroke:none;" d="M414 528L415 529L414 528z"/>
<path style="fill:#7f0b17; stroke:none;" d="M773 529C777.215 530.769 782.464 530 787 530L814 530L908 530C903.785 528.231 898.535 529 894 529L867 529L773 529z"/>
<path style="fill:#60080f; stroke:none;" d="M413 530L414 531L413 530z"/>
<path style="fill:#300408; stroke:none;" d="M907 530L907 541C908.431 537.59 908.431 533.41 907 530z"/>
<path style="fill:#60080f; stroke:none;" d="M412 532L413 533L412 532z"/>
<path style="fill:#300408; stroke:none;" d="M659 535L659 538C659.696 536.446 659.696 536.554 659 535z"/>
<path style="fill:#770a17; stroke:none;" d="M570 537C563.988 538.777 557.239 538 551 538L519 538L410 538C413.025 539.743 417.455 539 421 539L445 539L533 539L562 539C564.112 539 571.247 540.022 570 537z"/>
<path style="fill:#60080f; stroke:none;" d="M659 538L659 541C659.696 539.446 659.696 539.554 659 538z"/>
<path style="fill:#48060b; stroke:none;" d="M324 539L325 540L324 539M323 541L324 542L323 541z"/>
<path style="fill:#900b17; stroke:none;" d="M659 541L659 544C659.696 542.446 659.696 542.554 659 541z"/>
<path style="fill:#60080f; stroke:none;" d="M907 541L907 546C907.83 543.97 907.83 543.03 907 541z"/>
<path style="fill:#48060b; stroke:none;" d="M322 543L323 544L322 543M321 545L322 546L321 545z"/>
<path style="fill:#900b17; stroke:none;" d="M907 546L907 549C907.696 547.446 907.696 547.554 907 546z"/>
<path style="fill:#60080f; stroke:none;" d="M320 547L321 548L320 547z"/>
<path style="fill:#48060b; stroke:none;" d="M660.333 547.667C660.278 547.722 660.222 548.778 660.667 548.333C660.722 548.278 660.778 547.222 660.333 547.667z"/>
<path style="fill:#60080f; stroke:none;" d="M319 549L320 550L319 549z"/>
<path style="fill:#780913; stroke:none;" d="M660.333 549.667C660.278 549.722 660.222 550.778 660.667 550.333C660.722 550.278 660.778 549.222 660.333 549.667z"/>
<path style="fill:#60080f; stroke:none;" d="M318 551L319 552L318 551z"/>
<path style="fill:#300408; stroke:none;" d="M906.333 552.667C906.278 552.722 906.222 553.778 906.667 553.333C906.722 553.278 906.778 552.222 906.333 552.667z"/>
<path style="fill:#7f0b17; stroke:none;" d="M975 552L975 558C975.951 555.715 975.951 554.285 975 552z"/>
<path style="fill:#60080f; stroke:none;" d="M317 553L318 554L317 553z"/>
<path style="fill:#3c0509; stroke:none;" d="M661.333 554.667C661.278 554.722 661.222 555.778 661.667 555.333C661.722 555.278 661.778 554.222 661.333 554.667z"/>
<path style="fill:#60080f; stroke:none;" d="M906.333 554.667C906.278 554.722 906.222 555.778 906.667 555.333C906.722 555.278 906.778 554.222 906.333 554.667M316 555L317 556L316 555z"/>
<path style="fill:#840a15; stroke:none;" d="M661.333 556.667C661.278 556.722 661.222 557.778 661.667 557.333C661.722 557.278 661.778 556.222 661.333 556.667z"/>
<path style="fill:#900b17; stroke:none;" d="M906.333 556.667C906.278 556.722 906.222 557.778 906.667 557.333C906.722 557.278 906.778 556.222 906.333 556.667z"/>
<path style="fill:#4c060e; stroke:none;" d="M975 558L975 563C975.83 560.97 975.83 560.03 975 558z"/>
<path style="fill:#60080f; stroke:none;" d="M662 560L662 563C662.696 561.446 662.696 561.554 662 560z"/>
<path style="fill:#4c060e; stroke:none;" d="M974.333 573.667C974.278 573.722 974.222 574.778 974.667 574.333C974.722 574.278 974.778 573.222 974.333 573.667z"/>
<path style="fill:#48060b; stroke:none;" d="M306 574L307 575L306 574M305 576L306 577L305 576z"/>
<path style="fill:#4c060e; stroke:none;" d="M899 577L900 578L899 577z"/>
<path style="fill:#48060b; stroke:none;" d="M304 578L305 579L304 578M303 580L304 581L303 580z"/>
<path style="fill:#750a14; stroke:none;" d="M973.333 580.667C973.278 580.722 973.222 581.778 973.667 581.333C973.722 581.278 973.778 580.222 973.333 580.667z"/>
<path style="fill:#54070d; stroke:none;" d="M302 582L303 583L302 582z"/>
<path style="fill:#290307; stroke:none;" d="M973.333 582.667C973.278 582.722 973.222 583.778 973.667 583.333C973.722 583.278 973.778 582.222 973.333 582.667z"/>
<path style="fill:#60080f; stroke:none;" d="M301 584L302 585L301 584M300 586L301 587L300 586z"/>
<path style="fill:#680912; stroke:none;" d="M972 587L972 590C972.696 588.446 972.696 588.554 972 587z"/>
<path style="fill:#60080f; stroke:none;" d="M299 588L300 589L299 588z"/>
<path style="fill:#4c060e; stroke:none;" d="M971.333 593.667C971.277 593.723 971.222 594.778 971.667 594.333C971.722 594.278 971.778 593.222 971.333 593.667z"/>
<path style="fill:#4f070f; stroke:none;" d="M382 594C387.707 596.395 395.846 595 402 595L446 595L598 595C592.293 592.605 584.154 594 578 594L534 594L382 594z"/>
<path style="fill:#3a050b; stroke:none;" d="M699.667 597.333C699.223 597.777 700.278 597.722 700.333 597.667C700.778 597.222 699.722 597.278 699.667 597.333z"/>
<path style="fill:#700913; stroke:none;" d="M871.667 597.333C871.222 597.778 872.278 597.722 872.333 597.667C872.778 597.222 871.722 597.278 871.667 597.333z"/>
<path style="fill:#4c060e; stroke:none;" d="M705 598C706.248 598.685 706.548 598.749 708 599C706.752 598.315 706.452 598.251 705 598z"/>
<path style="fill:#55070e; stroke:none;" d="M865.667 598.333C865.222 598.778 866.278 598.722 866.333 598.667C866.778 598.222 865.722 598.278 865.667 598.333z"/>
<path style="fill:#770a15; stroke:none;" d="M712.667 599.333C712.222 599.778 713.278 599.722 713.333 599.667C713.778 599.222 712.722 599.278 712.667 599.333z"/>
<path style="fill:#45060c; stroke:none;" d="M714 599C715.248 599.685 715.548 599.749 717 600C715.752 599.315 715.452 599.251 714 599z"/>
<path style="fill:#4c060e; stroke:none;" d="M856 599C857.248 599.685 857.548 599.749 859 600C857.752 599.315 857.451 599.251 856 599z"/>
<path style="fill:#700913; stroke:none;" d="M725 600C726.769 600.779 728.036 600.912 730 601C728.231 600.221 726.964 600.088 725 600z"/>
<path style="fill:#4c060e; stroke:none;" d="M730 600C732.052 600.874 733.747 600.953 736 601C733.948 600.126 732.253 600.047 730 600M838 600C840.332 600.984 842.457 600.981 845 601C842.668 600.015 840.543 600.019 838 600z"/>
<path style="fill:#7f0b17; stroke:none;" d="M845 600C846.506 600.683 847.315 600.826 849 601C847.494 600.317 846.685 600.174 845 600M762 601C766.969 603.085 773.65 602 779 602L813 602C808.031 599.915 801.35 601 796 601L762 601z"/>
<path style="fill:#48060b; stroke:none;" d="M374 609L375 610L374 609M373 611L374 612L373 611M372 613L373 614L372 613M371 615L372 616L371 615z"/>
<path style="fill:#4c060e; stroke:none;" d="M964 616L965 617L964 616z"/>
<path style="fill:#48060b; stroke:none;" d="M370 617L371 618L370 617M369 619L370 620L369 619z"/>
<path style="fill:#ffffff; stroke:none;" d="M1080 620L1080 1095C1081.66 1091.04 1081 1086.26 1081 1082L1081 1059L1081 977L1081 725L1081 652L1081 631C1081 627.298 1081.44 623.434 1080 620z"/>
<path style="fill:#333333; stroke:none;" d="M0 621L0 1095L1080 1095L1080 625C1077.45 630.295 1077.71 636.332 1076.63 642C1074.52 653.024 1071.88 663.997 1069.55 675C1065.25 695.271 1058.05 715.565 1050.95 735C1021.32 816.062 971.086 886.594 909 945.961C877.036 976.525 839.671 1002.07 801 1023.31C734.446 1059.86 657.892 1083.71 582 1088.91C412.429 1100.52 243.95 1033.2 131.285 905C85.1618 852.515 47.6619 790.439 25.5154 724C18.6695 703.462 11.5447 682.293 7.46065 661C6.05974 653.696 4.35624 646.356 3.27161 639C2.42955 633.289 2.23444 626.276 0 621z"/>
<path style="fill:#48060b; stroke:none;" d="M368 621L369 622L368 621M367 623L368 624L367 623M366 625L367 626L366 625M365 627L366 628L365 627M364 629L365 630L364 629M363 631L364 632L363 631M362 633L363 634L362 633z"/>
<path style="fill:#4c060e; stroke:none;" d="M953 634L954 635L953 634z"/>
<path style="fill:#48060b; stroke:none;" d="M361 635L362 636L361 635M360 637L361 638L360 637M359 639L360 640L359 639M358 641L359 642L358 641z"/>
<path style="fill:#191919; stroke:none;" d="M1076 641L1076 644C1076.7 642.446 1076.7 642.554 1076 641z"/>
<path style="fill:#48060b; stroke:none;" d="M357 643L358 644L357 643z"/>
<path style="fill:#60080f; stroke:none;" d="M355 647L356 648L355 647M354 649L355 650L354 649z"/>
<path style="fill:#4f070f; stroke:none;" d="M626 650L627 651L626 650z"/>
<path style="fill:#60080f; stroke:none;" d="M353 651L354 652L353 651M352 653L353 654L352 653M351 655L352 656L351 655M350 657L351 658L350 657M349 659L350 660L349 659z"/>
<path style="fill:#4c060e; stroke:none;" d="M916 659L917 660L916 659z"/>
<path style="fill:#60080f; stroke:none;" d="M348 661L349 662L348 661z"/>
<path style="fill:#900b17; stroke:none;" d="M255 662C262.879 665.306 275.466 663 284 663L348 663C340.121 659.694 327.534 662 319 662L255 662z"/>
<path style="fill:#770a17; stroke:none;" d="M633 662C639.678 664.802 649.784 663 657 663L711 663C704.322 660.198 694.216 662 687 662L633 662z"/>
<path style="fill:#290307; stroke:none;" d="M905.667 662.333C905.223 662.777 906.278 662.722 906.333 662.667C906.778 662.222 905.722 662.278 905.667 662.333z"/>
<path style="fill:#191919; stroke:none;" d="M8.33333 664.667C8.27772 664.722 8.22227 665.778 8.66667 665.333C8.72218 665.278 8.77784 664.222 8.33333 664.667M1069.33 674.667C1069.28 674.722 1069.22 675.778 1069.67 675.333C1069.72 675.278 1069.78 674.222 1069.33 674.667M1068.33 678.667C1068.28 678.722 1068.22 679.778 1068.67 679.333C1068.72 679.277 1068.78 678.223 1068.33 678.667M14.3333 688.667C14.2777 688.722 14.2223 689.778 14.6667 689.333C14.7222 689.278 14.7778 688.222 14.3333 688.667z"/>
<path style="fill:#464646; stroke:none;" d="M411.667 699.333C411.222 699.778 412.278 699.722 412.333 699.667C412.778 699.222 411.722 699.278 411.667 699.333z"/>
<path style="fill:#696969; stroke:none;" d="M413.667 699.333C413.222 699.778 414.278 699.722 414.333 699.667C414.778 699.222 413.722 699.278 413.667 699.333z"/>
<path style="fill:#8b8b8c; stroke:none;" d="M452 737L436 737C428.026 760.439 391.798 740.654 407.638 721.185C409.319 719.119 411.572 717.591 414.001 716.533C416.893 715.274 419.899 714.923 423 715.471C426.6 716.108 430.053 717.538 432.61 720.209C434.215 721.884 435.196 724.372 437.39 725.397C441.291 727.218 447.76 726 452 726C451.451 719.098 449.877 712.248 444.815 707.185C434.143 696.514 411.145 696.462 399.015 704.61C389.044 711.307 385.533 722.514 386.039 734C386.471 743.791 390.52 753.432 399.001 758.867C418.496 771.363 451.467 762.682 452 737z"/>
<path style="fill:#696969; stroke:none;" d="M425.667 699.333C425.222 699.778 426.278 699.722 426.333 699.667C426.778 699.222 425.722 699.278 425.667 699.333z"/>
<path style="fill:#3d3d3d; stroke:none;" d="M427 699C428.248 699.685 428.548 699.749 430 700C428.752 699.315 428.452 699.251 427 699z"/>
<path style="fill:#464646; stroke:none;" d="M480.667 699.333C480.222 699.778 481.278 699.722 481.333 699.667C481.778 699.222 480.722 699.278 480.667 699.333z"/>
<path style="fill:#696969; stroke:none;" d="M482 699C483.248 699.685 483.548 699.749 485 700C483.752 699.315 483.452 699.251 482 699z"/>
<path style="fill:#8b8b8c; stroke:none;" d="M485 699.425C477.331 700.466 470.269 701.738 464.174 706.9C451.098 717.973 449.973 742.602 462.185 754.815C469.923 762.553 483.459 764.975 494 763.714C501.842 762.777 509.836 761.123 515.907 755.671C528.445 744.411 528.206 720.153 516.535 708.464C508.681 700.598 495.776 697.962 485 699.425z"/>
<path style="fill:#696969; stroke:none;" d="M494 699C495.248 699.685 495.548 699.749 497 700C495.752 699.315 495.452 699.251 494 699z"/>
<path style="fill:#343435; stroke:none;" d="M497.667 699.333C497.222 699.778 498.278 699.722 498.333 699.667C498.778 699.222 497.722 699.278 497.667 699.333z"/>
<path style="fill:#4e4e4f; stroke:none;" d="M563.667 699.333C563.222 699.778 564.278 699.722 564.333 699.667C564.778 699.222 563.722 699.278 563.667 699.333z"/>
<path style="fill:#8b8b8c; stroke:none;" d="M548 717C546.393 711.563 547 705.642 547 700L529 700L529 763L547 763L547 740C547 734.762 546.673 729.714 549.367 725.001C554.122 716.681 565.024 712.912 571.272 722.044C574.235 726.375 573.998 731.998 574 737L574 763L592 763C592 751.83 588.877 735.054 594.417 725.004C599.334 716.085 611.285 713.48 617.142 723.015C619.655 727.108 619 732.41 619 737L619 763L637 763L637 729C637 722.026 637.275 714.198 633.517 708.015C627.488 698.095 611.333 696.448 602.004 702.703C596.66 706.286 593.663 711.968 592 718C589.625 711.806 588.087 705.713 581.996 702.008C568.943 694.069 550.358 701.891 548 717z"/>
<path style="fill:#4e4e4f; stroke:none;" d="M574 699C575.248 699.685 575.548 699.749 577 700C575.752 699.315 575.452 699.251 574 699z"/>
<path style="fill:#606061; stroke:none;" d="M609 699C610.248 699.685 610.549 699.749 612 700C610.752 699.315 610.452 699.251 609 699z"/>
<path style="fill:#575758; stroke:none;" d="M619 699C620.248 699.685 620.548 699.749 622 700C620.752 699.315 620.452 699.251 619 699z"/>
<path style="fill:#464646; stroke:none;" d="M674.667 699.333C674.222 699.778 675.278 699.722 675.333 699.667C675.778 699.222 674.722 699.278 674.667 699.333z"/>
<path style="fill:#696969; stroke:none;" d="M676.667 699.333C676.222 699.778 677.278 699.722 677.333 699.667C677.778 699.222 676.722 699.278 676.667 699.333z"/>
<path style="fill:#8b8b8c; stroke:none;" d="M660 712C658.829 708.04 659 704.113 659 700L641 700L641 788L659 788L659 752C668.655 766.017 692.403 768.703 704.815 755.895C714.527 745.873 715.93 725.1 709.597 713.001C701.158 696.879 666.868 691.811 660 712z"/>
<path style="fill:#606061; stroke:none;" d="M687.667 699.333C687.222 699.778 688.278 699.722 688.333 699.667C688.778 699.222 687.722 699.278 687.667 699.333z"/>
<path style="fill:#343435; stroke:none;" d="M689.667 699.333C689.222 699.778 690.278 699.722 690.333 699.667C690.778 699.222 689.722 699.278 689.667 699.333M736.667 699.333C736.222 699.778 737.278 699.722 737.333 699.667C737.778 699.222 736.722 699.278 736.667 699.333z"/>
<path style="fill:#696969; stroke:none;" d="M738 699C739.506 699.683 740.315 699.826 742 700C740.494 699.317 739.685 699.174 738 699z"/>
<path style="fill:#8b8b8c; stroke:none;" d="M717 721L734 721C740.141 708.15 762.188 711.174 763 726L737 726C731.576 726.009 725.615 726.188 721.105 729.652C713.222 735.706 713.343 749.674 719.533 756.815C730.508 769.476 757.487 765.774 763 750C764.269 754.418 763.194 758.483 763 763L781 763L781 732C781 723.06 780.779 713.856 773.895 707.185C764.968 698.535 750.501 698.45 739 699.845C732.585 700.623 725.79 702.11 721.228 707.105C717.685 710.983 717.104 715.977 717 721z"/>
<path style="fill:#606061; stroke:none;" d="M754.667 699.333C754.222 699.778 755.278 699.722 755.333 699.667C755.778 699.222 754.722 699.278 754.667 699.333z"/>
<path style="fill:#343435; stroke:none;" d="M756 699C757.248 699.685 757.548 699.749 759 700C757.752 699.315 757.451 699.251 756 699z"/>
<path style="fill:#4e4e4f; stroke:none;" d="M823.667 699.333C823.222 699.778 824.278 699.722 824.333 699.667C824.778 699.222 823.722 699.278 823.667 699.333z"/>
<path style="fill:#696969; stroke:none;" d="M825.667 699.333C825.222 699.778 826.278 699.722 826.333 699.667C826.778 699.222 825.722 699.278 825.667 699.333z"/>
<path style="fill:#8b8b8c; stroke:none;" d="M805 717C803.393 711.563 804 705.642 804 700L786 700L786 763L804 763L804 740C804 735.255 803.645 730.278 806.089 726.001C812.407 714.946 831.247 712.227 837.427 725.004C839.505 729.298 839 734.373 839 739L839 763L857 763L857 729C857 721.867 857.195 713.974 852.581 708.015C840.869 692.891 808.637 696.845 805 717z"/>
<path style="fill:#696969; stroke:none;" d="M835.667 699.333C835.222 699.778 836.278 699.722 836.333 699.667C836.778 699.222 835.722 699.278 835.667 699.333z"/>
<path style="fill:#464646; stroke:none;" d="M837 699C838.248 699.685 838.549 699.749 840 700C838.752 699.315 838.452 699.251 837 699z"/>
<path style="fill:#575758; stroke:none;" d="M407.667 700.333C407.222 700.778 408.278 700.722 408.333 700.667C408.778 700.222 407.722 700.278 407.667 700.333M432 700L433 701L432 700z"/>
<path style="fill:#2c2c2c; stroke:none;" d="M433 700L434 701L433 700z"/>
<path style="fill:#696969; stroke:none;" d="M476.667 700.333C476.222 700.778 477.278 700.722 477.333 700.667C477.778 700.222 476.722 700.278 476.667 700.333z"/>
<path style="fill:#464646; stroke:none;" d="M502 700L503 701L502 700z"/>
<path style="fill:#232323; stroke:none;" d="M528 700L528 763C530.085 758.031 529 751.35 529 746L529 715C529 710.191 529.875 704.469 528 700z"/>
<path style="fill:#343435; stroke:none;" d="M560 700L561 701L560 700z"/>
<path style="fill:#606061; stroke:none;" d="M561 700L562 701L561 700z"/>
<path style="fill:#3d3d3d; stroke:none;" d="M579 700L580 701L579 700z"/>
<path style="fill:#575758; stroke:none;" d="M606 700L607 701L606 700z"/>
<path style="fill:#4e4e4f; stroke:none;" d="M624 700L625 701L624 700z"/>
<path style="fill:#232323; stroke:none;" d="M659 700L659 712C660.955 708.578 660.513 703.599 659 700z"/>
<path style="fill:#3d3d3d; stroke:none;" d="M671 700L672 701L671 700z"/>
<path style="fill:#606061; stroke:none;" d="M693 700L694 701L693 700z"/>
<path style="fill:#343435; stroke:none;" d="M694 700L695 701L694 700z"/>
<path style="fill:#4e4e4f; stroke:none;" d="M732.667 700.333C732.223 700.777 733.278 700.722 733.333 700.667C733.778 700.222 732.722 700.278 732.667 700.333M760.667 700.333C760.222 700.778 761.278 700.722 761.333 700.667C761.778 700.222 760.722 700.278 760.667 700.333z"/>
<path style="fill:#232323; stroke:none;" d="M785 700L785 763C786.875 758.531 786 752.809 786 748L786 717C786 711.65 787.085 704.969 785 700z"/>
<path style="fill:#343435; stroke:none;" d="M819 700L820 701L819 700z"/>
<path style="fill:#3d3d3d; stroke:none;" d="M842 700L843 701L842 700z"/>
<path style="fill:#8b8b8c; stroke:none;" d="M858 700C864.637 716.178 872.12 732.06 879.306 748C881.741 753.402 883.442 761.873 890 763C887.096 767.9 884.164 773.42 878 774.566C874.788 775.164 871.244 774.139 868 774C868 777.727 866.573 785.2 869.028 788.258C870.529 790.128 873.819 790.258 876 790.572C884.75 791.831 893.381 789.077 898.841 781.96C906.129 772.459 909.538 760.032 913.811 749C920.133 732.679 927.391 716.579 933 700C928.335 700 919.47 698.293 915.499 701.028C912.463 703.119 911.276 708.723 910.05 712C906.416 721.717 900.762 731.769 899 742C892.258 735.052 888.839 721.891 885 713C883.486 709.493 881.903 703.224 878.582 701.028C873.957 697.97 863.406 700 858 700z"/>
<path style="fill:#464646; stroke:none;" d="M879 700L880 701L879 700z"/>
<path style="fill:#343435; stroke:none;" d="M914 700L915 701L914 700M404 701L405 702L404 701z"/>
<path style="fill:#606061; stroke:none;" d="M405 701L406 702L405 701z"/>
<path style="fill:#575758; stroke:none;" d="M435 701L436 702L435 701z"/>
<path style="fill:#4e4e4f; stroke:none;" d="M473 701L474 702L473 701M505 701L506 702L505 701z"/>
<path style="fill:#343435; stroke:none;" d="M558 701L559 702L558 701z"/>
<path style="fill:#4e4e4f; stroke:none;" d="M581 701L582 702L581 701z"/>
<path style="fill:#575758; stroke:none;" d="M669 701L670 702L669 701M696 701L697 702L696 701z"/>
<path style="fill:#343435; stroke:none;" d="M729 701L730 702L729 701z"/>
<path style="fill:#606061; stroke:none;" d="M730 701L731 702L730 701z"/>
<path style="fill:#575758; stroke:none;" d="M764 701L765 702L764 701M817 701L818 702L817 701M844 701L845 702L844 701z"/>
<path style="fill:#464646; stroke:none;" d="M858 701L859 702L858 701z"/>
<path style="fill:#4e4e4f; stroke:none;" d="M932 701L933 702L932 701z"/>
<path style="fill:#3d3d3d; stroke:none;" d="M402 702L403 703L402 702z"/>
<path style="fill:#343435; stroke:none;" d="M438 702L439 703L438 702M470 702L471 703L470 702M508 702L509 703L508 702z"/>
<path style="fill:#2c2c2c; stroke:none;" d="M583 702L584 703L583 702z"/>
<path style="fill:#464646; stroke:none;" d="M628 702L629 703L628 702z"/>
<path style="fill:#575758; stroke:none;" d="M667 702L668 703L667 702z"/>
<path style="fill:#464646; stroke:none;" d="M727 702L728 703L727 702z"/>
<path style="fill:#343435; stroke:none;" d="M767 702L768 703L767 702z"/>
<path style="fill:#575758; stroke:none;" d="M815 702L816 703L815 702z"/>
<path style="fill:#606061; stroke:none;" d="M846 702L847 703L846 702z"/>
<path style="fill:#343435; stroke:none;" d="M880 702L881 703L880 702M400 703L401 704L400 703M555 703L556 704L555 703z"/>
<path style="fill:#575758; stroke:none;" d="M584 703L585 704L584 703z"/>
<path style="fill:#2c2c2c; stroke:none;" d="M600 703L601 704L600 703z"/>
<path style="fill:#3d3d3d; stroke:none;" d="M725 703L726 704L725 703M813 703L814 704L813 703z"/>
<path style="fill:#343435; stroke:none;" d="M848 703L849 704L848 703z"/>
<path style="fill:#575758; stroke:none;" d="M859 703L860 704L859 703z"/>
<path style="fill:#4e4e4f; stroke:none;" d="M913 703L914 704L913 703M441 704L442 705L441 704z"/>
<path style="fill:#606061; stroke:none;" d="M467 704L468 705L467 704M511 704L512 705L511 704z"/>
<path style="fill:#575758; stroke:none;" d="M554 704L555 705L554 704M585 704L586 705L585 704z"/>
<path style="fill:#343435; stroke:none;" d="M599 704L600 705L599 704M664 704L665 705L664 704M702 704L703 705L702 704z"/>
<path style="fill:#606061; stroke:none;" d="M770 704L771 705L770 704z"/>
<path style="fill:#575758; stroke:none;" d="M812 704L813 705L812 704M849 704L850 705L849 704z"/>
<path style="fill:#343435; stroke:none;" d="M931 704L932 705L931 704M397 705L398 706L397 705z"/>
<path style="fill:#2c2c2c; stroke:none;" d="M465 705L466 706L465 705M513 705L514 706L513 705z"/>
<path style="fill:#575758; stroke:none;" d="M553 705L554 706L553 705M586 705L587 706L586 705z"/>
<path style="fill:#4e4e4f; stroke:none;" d="M598 705L599 706L598 705z"/>
<path style="fill:#343435; stroke:none;" d="M663 705L664 706L663 705z"/>
<path style="fill:#575758; stroke:none;" d="M703 705L704 706L703 705z"/>
<path style="fill:#2c2c2c; stroke:none;" d="M722 705L723 706L722 705z"/>
<path style="fill:#575758; stroke:none;" d="M850 705L851 706L850 705z"/>
<path style="fill:#606061; stroke:none;" d="M860 705L861 706L860 705M881 705L882 706L881 705z"/>
<path style="fill:#343435; stroke:none;" d="M912 705L913 706L912 705z"/>
<path style="fill:#575758; stroke:none;" d="M396 706L397 707L396 706z"/>
<path style="fill:#4e4e4f; stroke:none;" d="M464 706L465 707L464 706M514 706L515 707L514 706z"/>
<path style="fill:#464646; stroke:none;" d="M552 706L553 707L552 706z"/>
<path style="fill:#343435; stroke:none;" d="M587 706L588 707L587 706M597 706L598 707L597 706z"/>
<path style="fill:#4e4e4f; stroke:none;" d="M632 706L633 707L632 706z"/>
<path style="fill:#2c2c2c; stroke:none;" d="M662 706L663 707L662 706z"/>
<path style="fill:#343435; stroke:none;" d="M721 706L722 707L721 706M773 706L774 707L773 706z"/>
<path style="fill:#575758; stroke:none;" d="M851 706L852 707L851 706M930 706L931 707L930 706z"/>
<path style="fill:#606061; stroke:none;" d="M395 707L396 708L395 707M463 707L464 708L463 707z"/>
<path style="fill:#575758; stroke:none;" d="M515 707L516 708L515 707z"/>
<path style="fill:#2c2c2c; stroke:none;" d="M720 707L721 708L720 707z"/>
<path style="fill:#343435; stroke:none;" d="M774 707L775 708L774 707z"/>
<path style="fill:#3d3d3d; stroke:none;" d="M852 707L853 708L852 707z"/>
<path style="fill:#575758; stroke:none;" d="M882 707L883 708L882 707M588 708L589 709L588 708M706 708L707 709L706 708z"/>
<path style="fill:#2c2c2c; stroke:none;" d="M775 708L776 709L775 708z"/>
<path style="fill:#4e4e4f; stroke:none;" d="M808 708L809 709L808 708z"/>
<path style="fill:#343435; stroke:none;" d="M861 708L862 709L861 708z"/>
<path style="fill:#4e4e4f; stroke:none;" d="M911 708L912 709L911 708z"/>
<path style="fill:#575758; stroke:none;" d="M393 709L394 710L393 709M461 709L462 710L461 709z"/>
<path style="fill:#606061; stroke:none;" d="M517 709L518 710L517 709z"/>
<path style="fill:#575758; stroke:none;" d="M550 709L551 710L550 709z"/>
<path style="fill:#606061; stroke:none;" d="M595 709L596 710L595 709z"/>
<path style="fill:#343435; stroke:none;" d="M634 709L635 710L634 709z"/>
<path style="fill:#3d3d3d; stroke:none;" d="M707 709L708 710L707 709M883 709L884 710L883 709z"/>
<path style="fill:#343435; stroke:none;" d="M929 709L930 710L929 709z"/>
<path style="fill:#464646; stroke:none;" d="M392 710L393 711L392 710z"/>
<path style="fill:#606061; stroke:none;" d="M447 710L448 711L447 710z"/>
<path style="fill:#4e4e4f; stroke:none;" d="M460 710L461 711L460 710M518 710L519 711L518 710z"/>
<path style="fill:#575758; stroke:none;" d="M589 710L590 711L589 710z"/>
<path style="fill:#343435; stroke:none;" d="M718 710L719 711L718 710z"/>
<path style="fill:#3d3d3d; stroke:none;" d="M862 710L863 711L862 710z"/>
<path style="fill:#343435; stroke:none;" d="M910 710L911 711L910 710z"/>
<path style="fill:#2c2c2c; stroke:none;" d="M391 711L392 712L391 711M448 711L449 712L448 711M459 711L460 712L459 711M519 711L520 712L519 711z"/>
<path style="fill:#464646; stroke:none;" d="M777 711L778 712L777 711z"/>
<path style="fill:#3d3d3d; stroke:none;" d="M806 711L807 712L806 711z"/>
<path style="fill:#343435; stroke:none;" d="M884 711L885 712L884 711z"/>
<path style="fill:#575758; stroke:none;" d="M928 711L929 712L928 711z"/>
<path style="fill:#343435; stroke:none;" d="M590 712L591 713L590 712M709 712L710 713L709 712z"/>
<path style="fill:#4e4e4f; stroke:none;" d="M863 712L864 713L863 712z"/>
<path style="fill:#575758; stroke:none;" d="M390 713L391 714L390 713z"/>
<path style="fill:#343435; stroke:none;" d="M449 713L450 714L449 713z"/>
<path style="fill:#606061; stroke:none;" d="M458 713L459 714L458 713M520 713L521 714L520 713z"/>
<path style="fill:#575758; stroke:none;" d="M548 713L549 714L548 713z"/>
<path style="fill:#606061; stroke:none;" d="M590 713L591 714L590 713M593 713L594 714L593 713z"/>
<path style="fill:#717172; stroke:none;" d="M717.333 713.667C717.278 713.722 717.222 714.778 717.667 714.333C717.722 714.278 717.778 713.222 717.333 713.667z"/>
<path style="fill:#464646; stroke:none;" d="M743 713C745.89 714.213 748.874 713.998 752 714C749.11 712.787 746.126 713.002 743 713z"/>
<path style="fill:#717172; stroke:none;" d="M752.667 713.333C752.222 713.778 753.278 713.722 753.333 713.667C753.778 713.222 752.722 713.278 752.667 713.333z"/>
<path style="fill:#464646; stroke:none;" d="M778 713L779 714L778 713z"/>
<path style="fill:#343435; stroke:none;" d="M805 713L806 714L805 713z"/>
<path style="fill:#4e4e4f; stroke:none;" d="M855 713L856 714L855 713M909 713L910 714L909 713z"/>
<path style="fill:#343435; stroke:none;" d="M710 714L711 715L710 714z"/>
<path style="fill:#2c2c2c; stroke:none;" d="M755 714L756 715L755 714z"/>
<path style="fill:#575758; stroke:none;" d="M756 714L757 715L756 714M864 714L865 715L864 714M885 714L886 715L885 714z"/>
<path style="fill:#3d3d3d; stroke:none;" d="M927 714L928 715L927 714z"/>
<path style="fill:#464646; stroke:none;" d="M416 715C418.613 716.098 421.165 715.993 424 716C421.387 714.902 418.836 715.007 416 715z"/>
<path style="fill:#2c2c2c; stroke:none;" d="M450 715L451 716L450 715z"/>
<path style="fill:#464646; stroke:none;" d="M486 715C488.332 715.984 490.457 715.981 493 716C490.668 715.015 488.543 715.019 486 715z"/>
<path style="fill:#343435; stroke:none;" d="M547 715L548 716L547 715z"/>
<path style="fill:#3d3d3d; stroke:none;" d="M591 715L591 718C592.016 716.861 592.309 716.388 593 715L591 715z"/>
<path style="fill:#575758; stroke:none;" d="M636 715L636 718C636.696 716.446 636.696 716.554 636 715z"/>
<path style="fill:#464646; stroke:none;" d="M673 715C675.89 716.213 678.874 715.998 682 716C679.11 714.787 676.126 715.002 673 715M758 715L759 716L758 715z"/>
<path style="fill:#343435; stroke:none;" d="M779 715L780 716L779 715z"/>
<path style="fill:#2c2c2c; stroke:none;" d="M908 715L909 716L908 715z"/>
<path style="fill:#4e4e4f; stroke:none;" d="M413 716L414 717L413 716z"/>
<path style="fill:#343435; stroke:none;" d="M427 716L428 717L427 716z"/>
<path style="fill:#575758; stroke:none;" d="M450 716L451 717L450 716z"/>
<path style="fill:#606061; stroke:none;" d="M481 716L482 717L481 716z"/>
<path style="fill:#343435; stroke:none;" d="M482 716L483 717L482 716z"/>
<path style="fill:#000000; stroke:none;" d="M483 716.533C472.163 719.172 469.098 734.921 476.394 742.775C480.924 747.652 489.895 747.953 496 746.467C506.755 743.848 509.863 728.041 502.606 720.225C498.077 715.347 489.103 715.047 483 716.533z"/>
<path style="fill:#343435; stroke:none;" d="M496 716L497 717L496 716z"/>
<path style="fill:#606061; stroke:none;" d="M497 716L498 717L497 716M547 716L548 717L547 716z"/>
<path style="fill:#696969; stroke:none;" d="M559 716C560.769 716.779 562.036 716.912 564 717C562.231 716.221 560.964 716.088 559 716M605 716C606.506 716.683 607.315 716.826 609 717C607.494 716.317 606.685 716.174 605 716z"/>
<path style="fill:#4e4e4f; stroke:none;" d="M670 716L671 717L670 716z"/>
<path style="fill:#000000; stroke:none;" d="M671 716.638C660.884 719.563 655.713 733.685 663.228 741.892C668.308 747.439 677.999 748.301 684.996 746.442C694.504 743.917 697.353 729.752 692.258 722.043C687.956 715.533 677.986 714.618 671 716.638z"/>
<path style="fill:#4e4e4f; stroke:none;" d="M685 716L686 717L685 716z"/>
<path style="fill:#232323; stroke:none;" d="M716 716L716 722C716.951 719.715 716.951 718.285 716 716z"/>
<path style="fill:#4e4e4f; stroke:none;" d="M804 716L805 717L804 716z"/>
<path style="fill:#696969; stroke:none;" d="M820 716C822.052 716.874 823.747 716.953 826 717C823.948 716.126 822.253 716.047 820 716z"/>
<path style="fill:#575758; stroke:none;" d="M856.333 716.667C856.278 716.722 856.222 717.778 856.667 717.333C856.722 717.278 856.778 716.222 856.333 716.667z"/>
<path style="fill:#4e4e4f; stroke:none;" d="M886 716L887 717L886 716z"/>
<path style="fill:#606061; stroke:none;" d="M908 716L909 717L908 716z"/>
<path style="fill:#575758; stroke:none;" d="M926 716L927 717L926 716M388 717L389 718L388 717z"/>
<path style="fill:#3d3d3d; stroke:none;" d="M411 717L412 718L411 717z"/>
<path style="fill:#606061; stroke:none;" d="M456 717L457 718L456 717z"/>
<path style="fill:#575758; stroke:none;" d="M479 717L480 718L479 717M499 717L500 718L499 717z"/>
<path style="fill:#606061; stroke:none;" d="M522 717L523 718L522 717z"/>
<path style="fill:#575758; stroke:none;" d="M556 717L557 718L556 717z"/>
<path style="fill:#2c2c2c; stroke:none;" d="M557 717L558 718L557 717z"/>
<path style="fill:#3d3d3d; stroke:none;" d="M566 717L567 718L566 717z"/>
<path style="fill:#343435; stroke:none;" d="M602 717L603 718L602 717M611 717L612 718L611 717M668 717L669 718L668 717M687 717L688 718L687 717z"/>
<path style="fill:#4e4e4f; stroke:none;" d="M711 717L712 718L711 717z"/>
<path style="fill:#232323; stroke:none;" d="M816.667 717.333C816.222 717.778 817.278 717.722 817.333 717.667C817.778 717.222 816.722 717.278 816.667 717.333z"/>
<path style="fill:#4e4e4f; stroke:none;" d="M828.667 717.333C828.222 717.778 829.278 717.722 829.333 717.667C829.778 717.222 828.722 717.278 828.667 717.333z"/>
<path style="fill:#343435; stroke:none;" d="M865 717L866 718L865 717z"/>
<path style="fill:#3d3d3d; stroke:none;" d="M431 718L432 719L431 718z"/>
<path style="fill:#606061; stroke:none;" d="M554 718L555 719L554 718z"/>
<path style="fill:#343435; stroke:none;" d="M568 718L569 719L568 718z"/>
<path style="fill:#3d3d3d; stroke:none;" d="M666 718L667 719L666 718z"/>
<path style="fill:#4e4e4f; stroke:none;" d="M689 718L690 719L689 718z"/>
<path style="fill:#1a1a1a; stroke:none;" d="M734 718L734 722C734.71 720.24 734.71 719.759 734 718z"/>
<path style="fill:#4e4e4f; stroke:none;" d="M761 718L762 719L761 718M780 718L780 721C780.696 719.446 780.696 719.554 780 718z"/>
<path style="fill:#464646; stroke:none;" d="M813 718L814 719L813 718z"/>
<path style="fill:#2c2c2c; stroke:none;" d="M831 718L832 719L831 718z"/>
<path style="fill:#343435; stroke:none;" d="M887 718L888 719L887 718z"/>
<path style="fill:#464646; stroke:none;" d="M907 718L908 719L907 718z"/>
<path style="fill:#3d3d3d; stroke:none;" d="M387 719L388 720L387 719z"/>
<path style="fill:#575758; stroke:none;" d="M408 719L409 720L408 719z"/>
<path style="fill:#343435; stroke:none;" d="M432 719L433 720L432 719z"/>
<path style="fill:#606061; stroke:none;" d="M451 719L451 722C451.696 720.446 451.696 720.554 451 719z"/>
<path style="fill:#3d3d3d; stroke:none;" d="M455 719L456 720L455 719M523 719L524 720L523 719z"/>
<path style="fill:#2c2c2c; stroke:none;" d="M553 719L554 720L553 719z"/>
<path style="fill:#3d3d3d; stroke:none;" d="M598 719L599 720L598 719z"/>
<path style="fill:#343435; stroke:none;" d="M690 719L691 720L690 719z"/>
<path style="fill:#575758; stroke:none;" d="M811 719L812 720L811 719z"/>
<path style="fill:#3d3d3d; stroke:none;" d="M833 719L834 720L833 719z"/>
<path style="fill:#343435; stroke:none;" d="M866 719L867 720L866 719z"/>
<path style="fill:#464646; stroke:none;" d="M925 719L926 720L925 719z"/>
<path style="fill:#575758; stroke:none;" d="M407 720L408 721L407 720z"/>
<path style="fill:#3d3d3d; stroke:none;" d="M433 720L434 721L433 720z"/>
<path style="fill:#232323; stroke:none;" d="M637 720L637 763C638.552 759.301 638 754.983 638 751C638 741.94 640.507 728.357 637 720z"/>
<path style="fill:#343435; stroke:none;" d="M691 720L692 721L691 720z"/>
<path style="fill:#4e4e4f; stroke:none;" d="M712.333 720.667C712.278 720.722 712.222 721.778 712.667 721.333C712.722 721.278 712.778 720.222 712.333 720.667z"/>
<path style="fill:#464646; stroke:none;" d="M762.333 720.667C762.278 720.722 762.222 721.778 762.667 721.333C762.722 721.278 762.778 720.222 762.333 720.667z"/>
<path style="fill:#2c2c2c; stroke:none;" d="M810 720L811 721L810 720M888 720L889 721L888 720M906 720L907 721L906 720z"/>
<path style="fill:#3d3d3d; stroke:none;" d="M571 721L572 722L571 721z"/>
<path style="fill:#2c2c2c; stroke:none;" d="M596 721L597 722L596 721z"/>
<path style="fill:#606061; stroke:none;" d="M692 721L693 722L692 721z"/>
<path style="fill:#696969; stroke:none;" d="M717 721C721.974 723.087 728.638 722 734 722C729.026 719.913 722.362 721 717 721z"/>
<path style="fill:#232323; stroke:none;" d="M857 721L857 763C860.407 754.882 858 741.797 858 733C858 729.017 858.552 724.699 857 721z"/>
<path style="fill:#464646; stroke:none;" d="M867 721L868 722L867 721z"/>
<path style="fill:#606061; stroke:none;" d="M906 721L907 722L906 721M924 721L925 722L924 721z"/>
<path style="fill:#464646; stroke:none;" d="M386.333 722.667C386.278 722.722 386.222 723.778 386.667 723.333C386.722 723.278 386.778 722.222 386.333 722.667z"/>
<path style="fill:#4e4e4f; stroke:none;" d="M454.333 722.667C454.278 722.722 454.222 723.778 454.667 723.333C454.722 723.278 454.778 722.222 454.333 722.667z"/>
<path style="fill:#343435; stroke:none;" d="M474 722L475 723L474 722M504 722L505 723L504 722z"/>
<path style="fill:#4e4e4f; stroke:none;" d="M524.333 722.667C524.278 722.722 524.222 723.778 524.667 723.333C524.722 723.278 524.778 722.222 524.333 722.667z"/>
<path style="fill:#3d3d3d; stroke:none;" d="M550 722L551 723L550 722z"/>
<path style="fill:#464646; stroke:none;" d="M595 722L596 723L595 722z"/>
<path style="fill:#575758; stroke:none;" d="M617 722L618 723L617 722z"/>
<path style="fill:#232323; stroke:none;" d="M762.333 722.667C762.278 722.722 762.222 723.778 762.667 723.333C762.722 723.278 762.778 722.222 762.333 722.667z"/>
<path style="fill:#464646; stroke:none;" d="M836 722L837 723L836 722z"/>
<path style="fill:#2c2c2c; stroke:none;" d="M924 722L925 723L924 722z"/>
<path style="fill:#464646; stroke:none;" d="M572 723L573 724L572 723z"/>
<path style="fill:#575758; stroke:none;" d="M661 723L662 724L661 723z"/>
<path style="fill:#4e4e4f; stroke:none;" d="M693 723L694 724L693 723z"/>
<path style="fill:#232323; stroke:none;" d="M781 723L781 763C782.552 759.301 782 754.983 782 751C782 742.729 784.206 730.639 781 723z"/>
<path style="fill:#2c2c2c; stroke:none;" d="M807 723L808 724L807 723z"/>
<path style="fill:#575758; stroke:none;" d="M868 723L869 724L868 723M889 723L890 724L889 723z"/>
<path style="fill:#464646; stroke:none;" d="M905 723L906 724L905 723z"/>
<path style="fill:#343435; stroke:none;" d="M405 724L406 725L405 724z"/>
<path style="fill:#464646; stroke:none;" d="M435 724L435 727C435.696 725.446 435.696 725.554 435 724z"/>
<path style="fill:#343435; stroke:none;" d="M473 724L474 725L473 724M505 724L506 725L505 724z"/>
<path style="fill:#575758; stroke:none;" d="M806 724L807 725L806 724z"/>
<path style="fill:#343435; stroke:none;" d="M837 724L838 725L837 724z"/>
<path style="fill:#4e4e4f; stroke:none;" d="M923 724L924 725L923 724z"/>
<path style="fill:#1a1a1a; stroke:none;" d="M452.333 725.667C452.278 725.722 452.222 726.778 452.667 726.333C452.722 726.278 452.778 725.222 452.333 725.667z"/>
<path style="fill:#464646; stroke:none;" d="M618.333 725.667C618.278 725.722 618.222 726.778 618.667 726.333C618.722 726.278 618.778 725.222 618.333 725.667z"/>
<path style="fill:#575758; stroke:none;" d="M660 725L661 726L660 725z"/>
<path style="fill:#232323; stroke:none;" d="M713 725L713 735C714.346 731.793 714.346 728.207 713 725z"/>
<path style="fill:#464646; stroke:none;" d="M890 725L891 726L890 725z"/>
<path style="fill:#2c2c2c; stroke:none;" d="M904 725L905 726L904 725z"/>
<path style="fill:#464646; stroke:none;" d="M404.333 726.667C404.278 726.722 404.222 727.778 404.667 727.333C404.722 727.278 404.778 726.222 404.333 726.667z"/>
<path style="fill:#696969; stroke:none;" d="M436 726C440.724 727.982 446.91 727 452 727C447.276 725.018 441.09 726 436 726z"/>
<path style="fill:#343435; stroke:none;" d="M548 726L549 727L548 726M593 726L594 727L593 726z"/>
<path style="fill:#2c2c2c; stroke:none;" d="M660 726L661 727L660 726z"/>
<path style="fill:#232323; stroke:none;" d="M694 726L694 730C694.71 728.24 694.71 727.76 694 726z"/>
<path style="fill:#4e4e4f; stroke:none;" d="M727.667 726.333C727.222 726.778 728.278 726.722 728.333 726.667C728.778 726.222 727.722 726.278 727.667 726.333z"/>
<path style="fill:#575758; stroke:none;" d="M805 726L806 727L805 726z"/>
<path style="fill:#606061; stroke:none;" d="M904 726L905 727L904 726z"/>
<path style="fill:#232323; stroke:none;" d="M385 727L385 736C386.256 733.006 386.256 729.994 385 727M453 727L453 736C454.256 733.006 454.256 729.994 453 727z"/>
<path style="fill:#2c2c2c; stroke:none;" d="M472 727L472 731C472.71 729.24 472.71 728.76 472 727z"/>
<path style="fill:#232323; stroke:none;" d="M506 727L506 731C506.71 729.24 506.71 728.76 506 727M525 727L525 736C526.256 733.006 526.256 729.994 525 727z"/>
<path style="fill:#464646; stroke:none;" d="M573 727L573 730C573.696 728.446 573.696 728.554 573 727z"/>
<path style="fill:#232323; stroke:none;" d="M618 727L618 730C618.696 728.446 618.696 728.554 618 727z"/>
<path style="fill:#343435; stroke:none;" d="M724 727L725 728L724 727z"/>
<path style="fill:#232323; stroke:none;" d="M838 727L838 731C838.71 729.24 838.71 728.76 838 727z"/>
<path style="fill:#343435; stroke:none;" d="M891 727L892 728L891 727M922 727L923 728L922 727z"/>
<path style="fill:#232323; stroke:none;" d="M404 728L404 731C404.696 729.446 404.696 729.554 404 728z"/>
<path style="fill:#4e4e4f; stroke:none;" d="M547.333 728.667C547.278 728.722 547.222 729.778 547.667 729.333C547.722 729.278 547.778 728.222 547.333 728.667M659 728L659 732C659.71 730.24 659.71 729.76 659 728z"/>
<path style="fill:#343435; stroke:none;" d="M722 728L723 729L722 728M870 728L871 729L870 728z"/>
<path style="fill:#464646; stroke:none;" d="M903 728L904 729L903 728z"/>
<path style="fill:#232323; stroke:none;" d="M592 729L592 733C592.71 731.24 592.71 730.76 592 729z"/>
<path style="fill:#464646; stroke:none;" d="M804.333 729.667C804.278 729.722 804.222 730.778 804.667 730.333C804.722 730.278 804.778 729.222 804.333 729.667z"/>
<path style="fill:#4e4e4f; stroke:none;" d="M921 729L922 730L921 729z"/>
<path style="fill:#232323; stroke:none;" d="M547 730L547 733C547.696 731.446 547.696 731.554 547 730M573 730L573 763C575.701 756.564 574 746.951 574 740C574 736.581 574.328 733.166 573 730z"/>
<path style="fill:#464646; stroke:none;" d="M871 730L872 731L871 730z"/>
<path style="fill:#2c2c2c; stroke:none;" d="M902 730L903 731L902 730z"/>
<path style="fill:#232323; stroke:none;" d="M804 731L804 734C804.696 732.446 804.696 732.554 804 731z"/>
<path style="fill:#606061; stroke:none;" d="M902 731L903 732L902 731z"/>
<path style="fill:#232323; stroke:none;" d="M404 732L404 735C404.696 733.446 404.696 733.554 404 732M506 732L506 735C506.696 733.446 506.696 733.554 506 732z"/>
<path style="fill:#3d3d3d; stroke:none;" d="M659 732L659 736C659.71 734.24 659.71 733.76 659 732z"/>
<path style="fill:#232323; stroke:none;" d="M694 732L694 735C694.696 733.446 694.696 733.554 694 732z"/>
<path style="fill:#575758; stroke:none;" d="M872 732L873 733L872 732M893 732L894 733L893 732z"/>
<path style="fill:#343435; stroke:none;" d="M920 732L921 733L920 732z"/>
<path style="fill:#232323; stroke:none;" d="M472.333 733.667C472.278 733.722 472.222 734.778 472.667 734.333C472.722 734.278 472.778 733.222 472.333 733.667z"/>
<path style="fill:#464646; stroke:none;" d="M717 733L718 734L717 733M901 733L902 734L901 733M894 734L895 735L894 734z"/>
<path style="fill:#575758; stroke:none;" d="M919 734L920 735L919 734z"/>
<path style="fill:#606061; stroke:none;" d="M404.333 735.667C404.278 735.722 404.222 736.778 404.667 736.333C404.722 736.278 404.778 735.222 404.333 735.667M472.333 735.667C472.278 735.722 472.222 736.778 472.667 736.333C472.722 736.278 472.778 735.222 472.333 735.667M506.333 735.667C506.278 735.722 506.222 736.778 506.667 736.333C506.722 736.278 506.778 735.222 506.333 735.667M694.333 735.667C694.278 735.722 694.222 736.778 694.667 736.333C694.722 736.278 694.778 735.222 694.333 735.667z"/>
<path style="fill:#464646; stroke:none;" d="M716 735L717 736L716 735z"/>
<path style="fill:#2c2c2c; stroke:none;" d="M900 735L901 736L900 735z"/>
<path style="fill:#232323; stroke:none;" d="M436 736C440.724 737.982 446.91 737 452 737C447.276 735.018 441.09 736 436 736z"/>
<path style="fill:#343435; stroke:none;" d="M895 736L896 737L895 736z"/>
<path style="fill:#575758; stroke:none;" d="M900 736L901 737L900 736z"/>
<path style="fill:#343435; stroke:none;" d="M435 737L435 740C435.696 738.446 435.696 738.554 435 737z"/>
<path style="fill:#232323; stroke:none;" d="M452 737L452 741C452.71 739.24 452.71 738.76 452 737z"/>
<path style="fill:#696969; stroke:none;" d="M739 737C745.687 739.806 755.767 738 763 738C756.313 735.194 746.233 737 739 737z"/>
<path style="fill:#343435; stroke:none;" d="M874 737L875 738L874 737M918 737L919 738L918 737z"/>
<path style="fill:#4e4e4f; stroke:none;" d="M386 738L386 741C386.696 739.446 386.696 739.554 386 738z"/>
<path style="fill:#343435; stroke:none;" d="M473 738L474 739L473 738M505 738L506 739L505 738z"/>
<path style="fill:#575758; stroke:none;" d="M524 738L524 741C524.696 739.446 524.696 739.554 524 738z"/>
<path style="fill:#4e4e4f; stroke:none;" d="M660 738L661 739L660 738z"/>
<path style="fill:#575758; stroke:none;" d="M712 738L712 741C712.696 739.446 712.696 739.554 712 738z"/>
<path style="fill:#696969; stroke:none;" d="M715.333 738.667C715.278 738.722 715.222 739.778 715.667 739.333C715.722 739.278 715.778 738.222 715.333 738.667z"/>
<path style="fill:#4e4e4f; stroke:none;" d="M734 738L735 739L734 738z"/>
<path style="fill:#000000; stroke:none;" d="M763 738L750 738L742 738.001C737.376 738.025 727.127 741.314 734.318 747.258C736.917 749.406 740.86 749 744 749C752.587 749.001 759.98 746.877 763 738z"/>
<path style="fill:#3d3d3d; stroke:none;" d="M899 738L900 739L899 738z"/>
<path style="fill:#575758; stroke:none;" d="M405 739L406 740L405 739z"/>
<path style="fill:#3d3d3d; stroke:none;" d="M454.333 739.667C454.278 739.722 454.222 740.778 454.667 740.333C454.722 740.278 454.778 739.222 454.333 739.667z"/>
<path style="fill:#4e4e4f; stroke:none;" d="M693 739L694 740L693 739z"/>
<path style="fill:#575758; stroke:none;" d="M732 739L733 740L732 739z"/>
<path style="fill:#464646; stroke:none;" d="M875 739L876 740L875 739z"/>
<path style="fill:#606061; stroke:none;" d="M896 739L897 740L896 739z"/>
<path style="fill:#575758; stroke:none;" d="M917 739L918 740L917 739z"/>
<path style="fill:#2c2c2c; stroke:none;" d="M474 740L475 741L474 740M504 740L505 741L504 740z"/>
<path style="fill:#606061; stroke:none;" d="M661 740L662 741L661 740z"/>
<path style="fill:#4e4e4f; stroke:none;" d="M762 740L763 741L762 740z"/>
<path style="fill:#464646; stroke:none;" d="M434 741L435 742L434 741z"/>
<path style="fill:#343435; stroke:none;" d="M662 741L663 742L662 741z"/>
<path style="fill:#4e4e4f; stroke:none;" d="M692 741L693 742L692 741z"/>
<path style="fill:#343435; stroke:none;" d="M731 741L731 745C731.71 743.24 731.71 742.76 731 741z"/>
<path style="fill:#575758; stroke:none;" d="M876 741L877 742L876 741M897.667 741.333C897.223 741.777 898.278 741.722 898.333 741.667C898.778 741.222 897.722 741.278 897.667 741.333z"/>
<path style="fill:#3d3d3d; stroke:none;" d="M407 742L408 743L407 742z"/>
<path style="fill:#343435; stroke:none;" d="M663 742L664 743L663 742z"/>
<path style="fill:#2c2c2c; stroke:none;" d="M691 742L692 743L691 742z"/>
<path style="fill:#4e4e4f; stroke:none;" d="M761 742L762 743L761 742z"/>
<path style="fill:#3d3d3d; stroke:none;" d="M916 742L917 743L916 742z"/>
<path style="fill:#232323; stroke:none;" d="M937 742C942.223 744.191 949.368 743 955 743L955 763C956.581 759.232 958.086 744.77 953.682 742.603C949.423 740.507 941.685 742 937 742z"/>
<path style="fill:#4e4e4f; stroke:none;" d="M387 743L388 744L387 743z"/>
<path style="fill:#343435; stroke:none;" d="M408 743L409 744L408 743z"/>
<path style="fill:#3d3d3d; stroke:none;" d="M451.333 743.667C451.278 743.722 451.222 744.778 451.667 744.333C451.722 744.278 451.778 743.222 451.333 743.667z"/>
<path style="fill:#575758; stroke:none;" d="M455 743L456 744L455 743M523 743L524 744L523 743z"/>
<path style="fill:#3d3d3d; stroke:none;" d="M664 743L665 744L664 743z"/>
<path style="fill:#606061; stroke:none;" d="M711 743L712 744L711 743z"/>
<path style="fill:#343435; stroke:none;" d="M760 743L761 744L760 743z"/>
<path style="fill:#606061; stroke:none;" d="M877 743L878 744L877 743z"/>
<path style="fill:#8b8b8c; stroke:none;" d="M937 743L937 763L955 763L955 743L937 743z"/>
<path style="fill:#464646; stroke:none;" d="M409 744L410 745L409 744z"/>
<path style="fill:#606061; stroke:none;" d="M665 744L666 745L665 744z"/>
<path style="fill:#343435; stroke:none;" d="M689 744L690 745L689 744M711 744L712 745L711 744M759 744L760 745L759 744z"/>
<path style="fill:#575758; stroke:none;" d="M915 744L916 745L915 744M430 745L431 746L430 745M479 745L480 746L479 745M499 745L500 746L499 745z"/>
<path style="fill:#464646; stroke:none;" d="M667 745L668 746L667 745z"/>
<path style="fill:#3d3d3d; stroke:none;" d="M758 745L759 746L758 745z"/>
<path style="fill:#2c2c2c; stroke:none;" d="M915 745L916 746L915 745z"/>
<path style="fill:#343435; stroke:none;" d="M388 746L389 747L388 746M427 746L428 747L427 746z"/>
<path style="fill:#606061; stroke:none;" d="M428 746L429 747L428 746z"/>
<path style="fill:#3d3d3d; stroke:none;" d="M456 746L457 747L456 746z"/>
<path style="fill:#606061; stroke:none;" d="M481 746L482 747L481 746z"/>
<path style="fill:#343435; stroke:none;" d="M482 746L483 747L482 746M496 746L497 747L496 746z"/>
<path style="fill:#606061; stroke:none;" d="M497 746L498 747L497 746z"/>
<path style="fill:#343435; stroke:none;" d="M522 746L523 747L522 746z"/>
<path style="fill:#3d3d3d; stroke:none;" d="M669.667 746.333C669.222 746.778 670.278 746.722 670.333 746.667C670.778 746.222 669.722 746.278 669.667 746.333z"/>
<path style="fill:#343435; stroke:none;" d="M685 746L686 747L685 746z"/>
<path style="fill:#606061; stroke:none;" d="M710 746L711 747L710 746z"/>
<path style="fill:#343435; stroke:none;" d="M878 746L879 747L878 746z"/>
<path style="fill:#464646; stroke:none;" d="M416 747C418.613 748.098 421.165 747.993 424 748C421.387 746.902 418.836 747.007 416 747M450 747L451 748L450 747M486 747C488.332 747.984 490.457 747.981 493 748C490.668 747.015 488.543 747.019 486 747M673 747C675.89 748.213 678.874 747.998 682 748C679.11 746.787 676.126 747.002 673 747z"/>
<path style="fill:#2c2c2c; stroke:none;" d="M710 747L711 748L710 747z"/>
<path style="fill:#575758; stroke:none;" d="M755 747L756 748L755 747z"/>
<path style="fill:#464646; stroke:none;" d="M914 747L915 748L914 747z"/>
<path style="fill:#343435; stroke:none;" d="M389 748L390 749L389 748z"/>
<path style="fill:#464646; stroke:none;" d="M457 748L458 749L457 748z"/>
<path style="fill:#3d3d3d; stroke:none;" d="M521 748L522 749L521 748M715.333 748.667C715.278 748.722 715.222 749.778 715.667 749.333C715.722 749.278 715.778 748.222 715.333 748.667z"/>
<path style="fill:#464646; stroke:none;" d="M752 748L753 749L752 748z"/>
<path style="fill:#3d3d3d; stroke:none;" d="M879 748L880 749L879 748z"/>
<path style="fill:#575758; stroke:none;" d="M449 749L450 750L449 749z"/>
<path style="fill:#343435; stroke:none;" d="M709 749L710 750L709 749z"/>
<path style="fill:#464646; stroke:none;" d="M739 749C741.89 750.213 744.874 749.998 748 750C745.11 748.787 742.126 749.002 739 749z"/>
<path style="fill:#696969; stroke:none;" d="M748.667 749.333C748.222 749.778 749.278 749.722 749.333 749.667C749.778 749.222 748.722 749.278 748.667 749.333z"/>
<path style="fill:#606061; stroke:none;" d="M913 749L914 750L913 749z"/>
<path style="fill:#696969; stroke:none;" d="M763 750C762.702 752.695 762.903 755.283 763 758C764.161 755.23 764.161 752.77 763 750z"/>
<path style="fill:#4e4e4f; stroke:none;" d="M880 750L881 751L880 750z"/>
<path style="fill:#2c2c2c; stroke:none;" d="M913 750L914 751L913 750z"/>
<path style="fill:#4e4e4f; stroke:none;" d="M391 751L392 752L391 751z"/>
<path style="fill:#464646; stroke:none;" d="M448 751L449 752L448 751z"/>
<path style="fill:#4e4e4f; stroke:none;" d="M459 751L460 752L459 751M519 751L520 752L519 751z"/>
<path style="fill:#575758; stroke:none;" d="M659 752L660 753L659 752z"/>
<path style="fill:#4e4e4f; stroke:none;" d="M707 752L708 753L707 752z"/>
<path style="fill:#343435; stroke:none;" d="M716 752L717 753L716 752M762 752L763 753L762 752z"/>
<path style="fill:#575758; stroke:none;" d="M881 752L882 753L881 752z"/>
<path style="fill:#4e4e4f; stroke:none;" d="M912 752L913 753L912 752z"/>
<path style="fill:#3d3d3d; stroke:none;" d="M660 754L661 755L660 754z"/>
<path style="fill:#2c2c2c; stroke:none;" d="M717 754L718 755L717 754z"/>
<path style="fill:#464646; stroke:none;" d="M761 754L762 755L761 754z"/>
<path style="fill:#343435; stroke:none;" d="M445 755L446 756L445 755z"/>
<path style="fill:#606061; stroke:none;" d="M661 755L662 756L661 755M718 755L719 756L718 755z"/>
<path style="fill:#2c2c2c; stroke:none;" d="M882 755L883 756L882 755z"/>
<path style="fill:#343435; stroke:none;" d="M911 755L912 756L911 755z"/>
<path style="fill:#232323; stroke:none;" d="M659 756L659 788C661.599 781.806 660 772.686 660 766C660 762.581 660.328 759.166 659 756z"/>
<path style="fill:#4e4e4f; stroke:none;" d="M465 757L466 758L465 757z"/>
<path style="fill:#464646; stroke:none;" d="M513 757L514 758L513 757z"/>
<path style="fill:#343435; stroke:none;" d="M759 757L760 758L759 757M883 757L884 758L883 757z"/>
<path style="fill:#4e4e4f; stroke:none;" d="M910 757L911 758L910 757z"/>
<path style="fill:#464646; stroke:none;" d="M398 758L399 759L398 758z"/>
<path style="fill:#4e4e4f; stroke:none;" d="M441 758L442 759L441 758z"/>
<path style="fill:#343435; stroke:none;" d="M758 758L759 759L758 758z"/>
<path style="fill:#464646; stroke:none;" d="M468 759L469 760L468 759z"/>
<path style="fill:#3d3d3d; stroke:none;" d="M510 759L511 760L510 759z"/>
<path style="fill:#4e4e4f; stroke:none;" d="M665 759L666 760L665 759z"/>
<path style="fill:#343435; stroke:none;" d="M700 759L701 760L700 759z"/>
<path style="fill:#606061; stroke:none;" d="M722 759L723 760L722 759z"/>
<path style="fill:#464646; stroke:none;" d="M884 759L885 760L884 759M470 760L471 761L470 760z"/>
<path style="fill:#3d3d3d; stroke:none;" d="M508 760L509 761L508 760z"/>
<path style="fill:#464646; stroke:none;" d="M698 760L699 761L698 760z"/>
<path style="fill:#2c2c2c; stroke:none;" d="M723 760L724 761L723 760z"/>
<path style="fill:#575758; stroke:none;" d="M755 760L756 761L755 760z"/>
<path style="fill:#343435; stroke:none;" d="M909 760L910 761L909 760z"/>
<path style="fill:#575758; stroke:none;" d="M404 761L405 762L404 761z"/>
<path style="fill:#4e4e4f; stroke:none;" d="M435 761L436 762L435 761z"/>
<path style="fill:#2c2c2c; stroke:none;" d="M472 761L473 762L472 761z"/>
<path style="fill:#575758; stroke:none;" d="M473 761L474 762L473 761M505 761L506 762L505 761z"/>
<path style="fill:#2c2c2c; stroke:none;" d="M506 761L507 762L506 761z"/>
<path style="fill:#343435; stroke:none;" d="M668 761L669 762L668 761z"/>
<path style="fill:#464646; stroke:none;" d="M696 761L697 762L696 761z"/>
<path style="fill:#343435; stroke:none;" d="M725 761L726 762L725 761z"/>
<path style="fill:#575758; stroke:none;" d="M753 761L754 762L753 761M885 761L886 762L885 761z"/>
<path style="fill:#2c2c2c; stroke:none;" d="M406 762L407 763L406 762z"/>
<path style="fill:#464646; stroke:none;" d="M432 762L433 763L432 762z"/>
<path style="fill:#4e4e4f; stroke:none;" d="M475.667 762.333C475.222 762.778 476.278 762.722 476.333 762.667C476.778 762.222 475.722 762.278 475.667 762.333z"/>
<path style="fill:#2c2c2c; stroke:none;" d="M502.667 762.333C502.222 762.778 503.278 762.722 503.333 762.667C503.778 762.222 502.722 762.278 502.667 762.333z"/>
<path style="fill:#4e4e4f; stroke:none;" d="M671 762L672 763L671 762M693 762L694 763L693 762z"/>
<path style="fill:#3d3d3d; stroke:none;" d="M751 762L752 763L751 762z"/>
<path style="fill:#575758; stroke:none;" d="M908 762L909 763L908 762M411.667 763.333C411.222 763.778 412.278 763.722 412.333 763.667C412.778 763.222 411.722 763.278 411.667 763.333z"/>
<path style="fill:#696969; stroke:none;" d="M424.667 763.333C424.222 763.778 425.278 763.722 425.333 763.667C425.778 763.222 424.722 763.278 424.667 763.333z"/>
<path style="fill:#464646; stroke:none;" d="M426.667 763.333C426.222 763.778 427.278 763.722 427.333 763.667C427.778 763.222 426.722 763.278 426.667 763.333z"/>
<path style="fill:#1a1a1a; stroke:none;" d="M428.667 763.333C428.222 763.778 429.278 763.722 429.333 763.667C429.778 763.222 428.722 763.278 428.667 763.333z"/>
<path style="fill:#3d3d3d; stroke:none;" d="M479 763C480.248 763.685 480.548 763.749 482 764C480.752 763.315 480.452 763.251 479 763z"/>
<path style="fill:#696969; stroke:none;" d="M482.667 763.333C482.222 763.778 483.278 763.722 483.333 763.667C483.778 763.222 482.722 763.278 482.667 763.333z"/>
<path style="fill:#606061; stroke:none;" d="M495.667 763.333C495.222 763.778 496.278 763.722 496.333 763.667C496.778 763.222 495.722 763.278 495.667 763.333z"/>
<path style="fill:#343435; stroke:none;" d="M497 763C498.248 763.685 498.548 763.749 500 764C498.752 763.315 498.452 763.251 497 763z"/>
<path style="fill:#464646; stroke:none;" d="M674.667 763.333C674.222 763.778 675.278 763.722 675.333 763.667C675.778 763.222 674.722 763.278 674.667 763.333z"/>
<path style="fill:#696969; stroke:none;" d="M676.667 763.333C676.222 763.778 677.278 763.722 677.333 763.667C677.778 763.222 676.722 763.278 676.667 763.333z"/>
<path style="fill:#575758; stroke:none;" d="M687 763C688.248 763.685 688.548 763.749 690 764C688.752 763.315 688.452 763.251 687 763z"/>
<path style="fill:#464646; stroke:none;" d="M731.667 763.333C731.222 763.778 732.278 763.722 732.333 763.667C732.778 763.222 731.722 763.278 731.667 763.333z"/>
<path style="fill:#717172; stroke:none;" d="M733.667 763.333C733.222 763.778 734.278 763.722 734.333 763.667C734.778 763.222 733.722 763.278 733.667 763.333z"/>
<path style="fill:#696969; stroke:none;" d="M744.667 763.333C744.222 763.778 745.278 763.722 745.333 763.667C745.778 763.222 744.722 763.278 744.667 763.333z"/>
<path style="fill:#3d3d3d; stroke:none;" d="M746 763C747.248 763.685 747.548 763.749 749 764C747.752 763.315 747.452 763.251 746 763z"/>
<path style="fill:#4e4e4f; stroke:none;" d="M889 763L890 764L889 763z"/>
<path style="fill:#343435; stroke:none;" d="M888 765L889 766L888 765z"/>
<path style="fill:#3d3d3d; stroke:none;" d="M907 765L908 766L907 765z"/>
<path style="fill:#343435; stroke:none;" d="M887 767L888 768L887 767z"/>
<path style="fill:#575758; stroke:none;" d="M906 767L907 768L906 767z"/>
<path style="fill:#4e4e4f; stroke:none;" d="M886 769L887 770L886 769z"/>
<path style="fill:#2c2c2c; stroke:none;" d="M885 770L886 771L885 770z"/>
<path style="fill:#343435; stroke:none;" d="M905 770L906 771L905 770z"/>
<path style="fill:#2c2c2c; stroke:none;" d="M883 772L884 773L883 772z"/>
<path style="fill:#343435; stroke:none;" d="M904 772L905 773L904 772z"/>
<path style="fill:#232323; stroke:none;" d="M867 773L867 789C869.065 784.08 866.644 778.43 870 774C868.752 773.315 868.452 773.251 867 773z"/>
<path style="fill:#464646; stroke:none;" d="M873 774C875.332 774.984 877.457 774.981 880 775C877.668 774.015 875.544 774.019 873 774M903 774L904 775L903 774z"/>
<path style="fill:#343435; stroke:none;" d="M902 776L903 777L902 776z"/>
<path style="fill:#575758; stroke:none;" d="M900 779L901 780L900 779z"/>
<path style="fill:#464646; stroke:none;" d="M898 782L899 783L898 782z"/>
<path style="fill:#575758; stroke:none;" d="M897 783L898 784L897 783M894 786L895 787L894 786z"/>
<path style="fill:#2c2c2c; stroke:none;" d="M893 787L894 788L893 787z"/>
<path style="fill:#575758; stroke:none;" d="M891 788L892 789L891 788M868.667 789.333C868.222 789.778 869.278 789.722 869.333 789.667C869.778 789.222 868.722 789.278 868.667 789.333z"/>
<path style="fill:#464646; stroke:none;" d="M889 789L890 790L889 789M872.667 790.333C872.222 790.778 873.278 790.722 873.333 790.667C873.778 790.222 872.722 790.278 872.667 790.333z"/>
<path style="fill:#696969; stroke:none;" d="M874.667 790.333C874.222 790.778 875.278 790.722 875.333 790.667C875.778 790.222 874.722 790.278 874.667 790.333z"/>
<path style="fill:#575758; stroke:none;" d="M884 790C885.248 790.685 885.548 790.749 887 791C885.752 790.315 885.451 790.251 884 790z"/>
<path style="fill:#191919; stroke:none;" d="M660 1076C661.248 1076.68 661.548 1076.75 663 1077C661.752 1076.32 661.451 1076.25 660 1076M635 1081C636.249 1081.68 636.548 1081.75 638 1082C636.752 1081.32 636.451 1081.25 635 1081M615 1084C616.506 1084.68 617.315 1084.83 619 1085C617.494 1084.32 616.685 1084.17 615 1084z"/>
<path style="fill:#161616; stroke:none;" d="M467 1085C468.506 1085.68 469.315 1085.83 471 1086C469.494 1085.32 468.685 1085.17 467 1085z"/>
<path style="fill:#191919; stroke:none;" d="M599 1086C601.052 1086.87 602.747 1086.95 605 1087C602.948 1086.13 601.253 1086.05 599 1086M589 1087C591.332 1087.98 593.457 1087.98 596 1088C593.668 1087.02 591.543 1087.02 589 1087M576 1088C579.163 1089.33 582.586 1089 586 1089C582.837 1087.67 579.414 1088 576 1088z"/>
<path style="fill:#0d0d0d; stroke:none;" d="M514 1089C518.217 1090.77 523.459 1090 528 1090C523.784 1088.23 518.541 1089 514 1089M552 1089C556.471 1090.88 562.183 1090 567 1090C562.529 1088.12 556.817 1089 552 1089z"/>
</svg>
